<svg width="159" height="108" viewBox="0 0 159 108" fill="none" xmlns="http://www.w3.org/2000/svg">
<path d="M156.263 75.8202C156.263 64.9267 150.919 56.8159 142.601 52.0382C149.459 46.977 153.463 39.3705 153.463 30.4602C153.463 21.6427 149.705 14.6274 143.632 9.86404C137.607 5.13756 129.407 2.7002 120.523 2.7002C105.718 2.7002 93.8701 10.1964 89.0196 20.9584L88.2555 22.6538L89.8909 23.5391L105.151 31.7991L106.87 32.7294L107.839 31.0325C109.127 28.7784 110.636 27.0313 112.539 25.8365C114.43 24.6494 116.848 23.9202 120.103 23.9202C126.202 23.9202 130.703 27.9778 130.703 33.5402C130.703 36.2193 129.885 38.5111 128.313 40.1243C126.756 41.722 124.238 42.8802 120.383 42.8802H111.983H109.983V44.8802V60.2802V62.2802H111.983H118.703C123.649 62.2802 127.125 63.6747 129.339 65.6557C131.544 67.6278 132.663 70.325 132.663 73.3002C132.663 79.7459 127.432 84.0402 120.383 84.0402C116.36 84.0402 113.274 83.103 110.922 81.5C108.571 79.8976 106.801 77.5259 105.588 74.3971L104.845 72.4819L102.95 73.2755L86.5704 80.1355L84.7874 80.8822L85.473 82.6895C90.4236 95.7412 103.978 105.26 121.783 105.26C131.465 105.26 140.062 102.457 146.278 97.3306C152.526 92.1774 156.263 84.7539 156.263 75.8202ZM41.96 105.26C54.2864 105.26 64.2581 99.9881 71.0898 90.8421C77.8775 81.7551 81.48 68.9735 81.48 53.9802C81.48 38.0676 77.5927 25.2676 70.6416 16.3989C63.6523 7.48158 53.6837 2.7002 41.96 2.7002C29.7008 2.7002 19.7313 7.97441 12.8842 17.1162C6.07946 26.2015 2.44 38.9827 2.44 53.9802C2.44 69.8247 6.32815 82.623 13.2771 91.5074C20.2638 100.44 30.2312 105.26 41.96 105.26ZM41.96 83.4802C37.228 83.4802 33.3073 80.9623 30.4672 75.9841C27.5866 70.9351 25.9 63.4445 25.9 53.9802C25.9 43.943 27.6261 36.4331 30.5088 31.505C33.3364 26.6714 37.2409 24.3402 41.96 24.3402C46.8506 24.3402 50.7601 26.8417 53.553 31.7928C56.3976 36.8355 58.02 44.3582 58.02 53.9802C58.02 64.0245 56.3266 71.4958 53.4641 76.3846C50.663 81.1685 46.7652 83.4802 41.96 83.4802Z" stroke="#3C48EE" stroke-width="4"/>
</svg>
