<svg width="165" height="108" viewBox="0 0 165 108" fill="none" xmlns="http://www.w3.org/2000/svg">
<path d="M126.643 102V104H128.643H147.403H149.403V102V88.1802H160.283H162.283V86.1802V69.9402V67.9402H160.283H149.403V5.8202V3.8202H147.403H132.143H131.053L130.463 4.73555L86.3626 73.0555L86.043 73.5508V74.1402V86.1802V88.1802H88.043H126.643V102ZM41.96 105.26C54.2864 105.26 64.2581 99.9881 71.0898 90.8421C77.8775 81.7551 81.48 68.9735 81.48 53.9802C81.48 38.0676 77.5927 25.2676 70.6416 16.3989C63.6523 7.48158 53.6837 2.7002 41.96 2.7002C29.7008 2.7002 19.7313 7.97441 12.8842 17.1162C6.07946 26.2015 2.44 38.9827 2.44 53.9802C2.44 69.8247 6.32815 82.623 13.2771 91.5074C20.2638 100.44 30.2312 105.26 41.96 105.26ZM41.96 83.4802C37.228 83.4802 33.3073 80.9623 30.4672 75.9841C27.5866 70.9351 25.9 63.4445 25.9 53.9802C25.9 43.943 27.6261 36.4331 30.5088 31.505C33.3364 26.6714 37.2409 24.3402 41.96 24.3402C46.8506 24.3402 50.7601 26.8417 53.553 31.7928C56.3976 36.8355 58.02 44.3582 58.02 53.9802C58.02 64.0245 56.3266 71.4958 53.4641 76.3846C50.663 81.1685 46.7652 83.4802 41.96 83.4802ZM127.903 68.7802H112.353L127.903 43.6526V68.7802Z" stroke="#3C48EE" stroke-width="4"/>
</svg>
