<svg width="160" height="108" viewBox="0 0 160 108" fill="none" xmlns="http://www.w3.org/2000/svg">
<path d="M125.703 37.9802C122.945 37.9802 119.506 38.4524 115.964 39.2999L116.807 25.1802H150.763H152.763V23.1802V5.8202V3.8202H150.763H98.123H96.235L96.1263 5.705L93.1863 56.665L93.1 58.1614L94.5119 58.6643L104.732 62.3043L105.773 62.675L106.641 61.9912C110.859 58.6677 115.025 57.5202 119.963 57.5202C123.409 57.5202 127.048 58.6555 129.787 60.8585C132.476 63.0221 134.343 66.2419 134.343 70.6402C134.343 74.4552 132.907 77.7313 130.41 80.0637C127.908 82.4012 124.219 83.9002 119.543 83.9002C112.503 83.9002 106.795 80.5831 103.379 75.9013L102.149 74.2166L100.517 75.5154L86.7975 86.4354L85.2234 87.6882L86.4855 89.2549C95.0267 99.8578 107.667 105.26 121.363 105.26C131.954 105.26 141.042 101.785 147.499 95.6839C153.964 89.5751 157.663 80.9512 157.663 70.9202C157.663 50.5991 143.151 37.9802 125.703 37.9802ZM41.96 105.26C54.2864 105.26 64.2581 99.9881 71.0898 90.8421C77.8775 81.7551 81.48 68.9735 81.48 53.9802C81.48 38.0676 77.5927 25.2676 70.6416 16.3989C63.6523 7.48158 53.6837 2.7002 41.96 2.7002C29.7008 2.7002 19.7313 7.97441 12.8842 17.1162C6.07946 26.2015 2.44 38.9827 2.44 53.9802C2.44 69.8247 6.32815 82.623 13.2771 91.5074C20.2638 100.44 30.2312 105.26 41.96 105.26ZM41.96 83.4802C37.228 83.4802 33.3073 80.9623 30.4672 75.9841C27.5866 70.9351 25.9 63.4445 25.9 53.9802C25.9 43.943 27.6261 36.4331 30.5088 31.505C33.3364 26.6714 37.2409 24.3402 41.96 24.3402C46.8506 24.3402 50.7601 26.8417 53.553 31.7928C56.3976 36.8355 58.02 44.3582 58.02 53.9802C58.02 64.0245 56.3266 71.4958 53.4641 76.3846C50.663 81.1685 46.7652 83.4802 41.96 83.4802Z" stroke="#3C48EE" stroke-width="4"/>
</svg>
