<svg width="74" height="81" fill="none" xmlns="http://www.w3.org/2000/svg"><path d="M32.16 8.49h23.08m-52.68 0h22.28m3.26 3.52v12.73m11.02 10.91c0-5.97-4.84-10.81-10.81-10.81-5.97 0-10.81 4.84-10.81 10.81M2 0v67.71M55.78 0v67.71m.73-58.97h3.64a4.31 4.31 0 014.31 4.31v8.64c0 .31.25.56.56.56h8.39M31.99 8.35c0 2.077-1.634 3.76-3.65 3.76s-3.65-1.683-3.65-3.76 1.634-3.76 3.65-3.76 3.65 1.683 3.65 3.76zm1.31 49.43h-10c-1.41 0-2.61-1.05-2.78-2.45L16.26 37.4c-.1-.83.54-1.57 1.38-1.57h21.33c.84 0 1.49.73 1.38 1.57l-4.26 17.93a2.808 2.808 0 01-2.79 2.45zM2 65.17h53.78v13.17H2V65.17z" stroke="#3E3EF7" stroke-width="4" stroke-miterlimit="10"/></svg>