<svg width="81" height="95" fill="none" xmlns="http://www.w3.org/2000/svg"><path d="M65.02 77.43l.999-.052-.999.052zm-2.4-45.57l.999-.053-.999.053zm-35.7 0l-.999-.053.999.053zm-2.4 45.57l-.999-.053v.001l.999.052zm-6.38-46.19v-1h-1v1h1zm50.39 1.84l.067-.998h-.011l-.056.998zm6.37 10.66l-.924-.384v.002l.924.382zm4.72-26.35l.707.707.04-.039.034-.043-.781-.625zm-.01.01l-.707-.707-.05.05-.043.057.8.6zm-.11.08l.408.913.02-.009.02-.01-.448-.894zm-.47.21l.407.914v-.001l-.407-.913zm-4.3 3.2l.751.66.001-.001-.752-.659zm-2.68 4.65l-.946-.324-.003.008.949.316zm-.36.37v1h.116l.113-.027-.229-.973zm-.02 0l-.229.973.113.027h.116v-1zm-.36-.37l.949-.316-.003-.008-.946.324zm-2.68-4.65l-.752.659v.001l.752-.66zm-4.3-3.2l-.408.913h.001l.407-.913zm-.47-.21l-.447.894.02.01.02.009.407-.913zm-.11-.08l.8-.6-.043-.057-.05-.05-.707.707zm-.01-.01l-.832.555.055.082.07.07.707-.707zm0-.36l-.707-.707-.04.04-.034.042.781.625zm.01-.01l.707.707.05-.05.043-.057-.8-.6zm.11-.08l-.408-.913-.02.009-.02.01.448.894zm.47-.21l-.407-.914v.001l.407.913zm4.3-3.2l-.751-.66-.001.001.752.659zm2.68-4.65l.946.324.003-.008-.949-.316zm.36-.37v-1h-.116l-.113.027.229.973zm.02 0l.229-.973-.113-.027h-.116v1zm.36.37l-.949.316.003.008.946-.324zm2.68 4.65l.752-.659v-.001l-.752.66zm4.3 3.2l.408-.913h-.001l-.407.913zm.47.21l.447-.894-.02-.01-.02-.009-.407.913zm.11.08l-.707.707.707-.707zm.01.01l.78-.625-.034-.043-.04-.04-.706.708zm-62 50.36l.707.707.04-.04.034-.042-.781-.625zm-.01.01l-.707-.707-.05.05-.043.057.8.6zm-.11.08l.408.913.02-.009.02-.01-.448-.894zm-.47.21l.407.914v-.001l-.407-.913zm-4.3 3.2l.751.66.001-.001-.752-.659zm-2.68 4.65l-.946-.324-.003.008.949.316zm-.36.37v1h.116l.113-.027-.229-.973zm-.02 0l-.229.973.113.027h.116v-1zm-.36-.37l.949-.316-.003-.008-.946.324zm-2.68-4.65l-.752.659v.001l.752-.66zm-4.3-3.2l-.408.913h.001l.407-.913zm-.47-.21l-.447.894.02.01.02.009.407-.913zm-.11-.08l.8-.6-.043-.057-.05-.05-.707.707zm-.01-.01l-.832.555.055.082.07.07.707-.707zm0-.36l-.707-.707-.04.04-.034.042.781.625zm.01-.01l.707.707.05-.05.043-.057-.8-.6zm.11-.08l-.408-.913-.02.009-.02.01.448.894zm.47-.21l-.407-.914v.001l.407.913zm4.3-3.2l-.751-.66-.001.001.752.659zm2.68-4.65l.946.324.003-.008-.949-.316zm.36-.37v-1h-.116l-.113.027.229.973zm.02 0l.229-.973-.113-.027H9.69v1zm.36.37l-.949.316.003.008.946-.324zm2.68 4.65l.752-.659v-.001l-.752.66zm4.3 3.2l.408-.913h-.001l-.407.913zm.47.21l.447-.894-.02-.01-.02-.009-.407.913zm.11.08l.707-.707-.707.707zm.01.01l.78-.625-.034-.043-.039-.039-.707.707zM29.97 6.58l.707.707.07-.07.055-.082-.832-.555zm-.07.06l.41.913.018-.01.02-.009-.448-.894zm-.29.13l-.41-.913-.008.005.418.908zM27 8.78l.76.65.002-.003L27 8.78zm-1.63 2.92l.94.342.004-.012.004-.011-.948-.319zm-.22.23v1h.147l.14-.042-.287-.958zm-.01 0l-.287.958.14.042h.147v-1zm-.22-.23l-.948.319.004.011.004.012.94-.342zm-1.63-2.92l-.762.647.002.003.76-.65zm-2.61-2.01l.418-.909-.009-.004-.409.913zm-.29-.13l-.447.894.019.01.019.009.409-.913zm-.06-.05h-1v.236l.106.211.894-.447zm-.01-.01l-.832.555.297.445h.535v-1zm0-.23l-.707-.707-.115.115-.072.145.894.447zm.01-.01l.707.707-.707-.707zm.06-.05l-.41-.913-.018.01-.02.009.448.894zm.29-.13l.41.913.008-.005-.418-.908zm2.61-2.01l-.76-.65-.002.003.762.647zm1.63-2.92l-.94-.342-.004.012-.004.011.948.319zm.22-.23V0h-.147l-.14.042.287.958zm.01 0l.287-.958-.14-.042h-.147v1zm.22.23l.948-.319L26.314.9 26.31.888l-.94.342zM27 4.15l.762-.647-.002-.003-.76.65zm2.61 2.01l-.418.909.009.004.409-.913zm.29.13l.447-.894-.019-.01-.019-.009-.409.913zm.06.05h1v-.236l-.106-.211-.894.447zm.01.01l.894-.447-.276-.553h-.618v1zm2.99 80.97h23.62v-2H32.96v2zm23.62 0c5.413 0 9.718-4.54 9.439-9.942l-1.998.104c.22 4.258-3.174 7.838-7.441 7.838v2zm9.439-9.943l-2.4-45.57-1.998.106 2.4 45.57 1.998-.106zm-2.4-45.57a9.444 9.444 0 00-9.439-8.947v2a7.444 7.444 0 017.441 7.053l1.998-.106zM54.18 22.86H35.36v2h18.82v-2zm-18.82 0a9.458 9.458 0 00-9.439 8.947l1.998.107a7.458 7.458 0 017.441-7.054v-2zm-9.439 8.947l-2.4 45.57 1.998.106 2.4-45.57-1.998-.106zm-2.4 45.571c-.28 5.412 4.026 9.942 9.439 9.942v-2a7.448 7.448 0 01-7.441-7.838l-1.998-.104zM26.52 40.28c-4.213-.857-7.379-4.585-7.379-9.04h-2c0 5.425 3.854 9.957 8.98 11l.4-1.96zm-8.379-8.04h8.84v-2h-8.84v2zm12.49-13.99h27.62v-2H30.63v2zm-7 76h42.62v-2H23.63v2zm30.29-14.16h.78v-2h-.78v2zm.78 0a4.107 4.107 0 004.11-4.11h-2c0 1.168-.942 2.11-2.11 2.11v2zm4.11-4.11V40.51h-2v35.47h2zm0-35.47c0-2.482-2.018-4.5-4.5-4.5v2c1.378 0 2.5 1.122 2.5 2.5h2zm-4.5-4.5a4.504 4.504 0 00-4.5 4.5h2c0-1.378 1.122-2.5 2.5-2.5v-2zm-4.5 4.5v35.47h2V40.51h-2zm0 35.47a4.107 4.107 0 004.11 4.11v-2a2.107 2.107 0 01-2.11-2.11h-2zm13.7-41.92h4.47v-2h-4.47v2zm4.47 0c.148 0 .312.008.495.018l.11-1.997a10.88 10.88 0 00-.605-.021v2zm.483.018c4.439.3 7.26 5.076 5.514 9.278l1.846.768c2.234-5.378-1.325-11.642-7.225-12.042l-.135 1.996zm5.513 9.28l-10.34 25.03 1.848.764 10.34-25.03-1.848-.764zM78.67 17.21c0-.02.001-.071.018-.14a.783.783 0 01.151-.305l1.562 1.25a1.29 1.29 0 00.269-.805h-2zm.243-.527l-.01.01 1.414 1.414.01-.01-1.414-1.414zm-.103.117a.799.799 0 01.194-.185c.042-.027.078-.044.049-.03l.894 1.79c.018-.01.272-.12.463-.375l-1.6-1.2zm.282-.233l-.47.21.816 1.826.47-.21-.816-1.826zm-.469.21a13.485 13.485 0 00-4.645 3.454l1.504 1.318a11.485 11.485 0 013.955-2.945l-.814-1.828zM73.98 20.23a14.846 14.846 0 00-2.875 4.986l1.892.648a12.849 12.849 0 012.485-4.314l-1.502-1.32zm-2.88 4.994a.358.358 0 01.082-.132.556.556 0 01.278-.155l.458 1.946c.612-.143.949-.634 1.08-1.027l-1.898-.632zm.589-.314h-.02v2h.02v-2zm.209.027a.556.556 0 01.278.155c.048.052.07.1.082.132l-1.898.632c.131.393.468.883 1.08 1.027l.458-1.946zm.357.279a14.846 14.846 0 00-2.875-4.986l-1.502 1.32a12.849 12.849 0 012.485 4.314l1.892-.648zm-2.874-4.985a13.484 13.484 0 00-4.645-3.455l-.814 1.828a11.47 11.47 0 013.955 2.945l1.504-1.318zm-4.644-3.454l-.47-.21-.816 1.826.47.21.816-1.826zm-.43-.191c-.03-.015.006.002.048.03a.8.8 0 01.194.184l-1.6 1.2c.191.255.445.366.463.374l.894-1.788zm.15.107l-.01-.01-1.415 1.414.01.01 1.414-1.414zm.114.142a.715.715 0 01.118.375h-2c0 .184.034.458.218.735l1.664-1.11zm.118.375a.6.6 0 01-.018.14.784.784 0 01-.151.305l-1.562-1.25a1.286 1.286 0 00-.269.805h2zm-.243.527l.01-.01-1.414-1.414-.01.01 1.414 1.414zm.103-.117a.8.8 0 01-.194.185c-.042.027-.078.044-.049.03l-.894-1.79c-.018.01-.272.12-.463.375l1.6 1.2zm-.282.233l.47-.21-.816-1.826-.47.21.816 1.826zm.469-.21a13.484 13.484 0 004.645-3.454l-1.504-1.318a11.485 11.485 0 01-3.955 2.945l.814 1.828zm4.644-3.453a14.846 14.846 0 002.875-4.986l-1.892-.648a12.849 12.849 0 01-2.485 4.314l1.502 1.32zm2.878-4.994a.358.358 0 01-.082.132.556.556 0 01-.278.155l-.458-1.946c-.612.143-.949.634-1.08 1.027l1.898.632zm-.589.314h.02v-2h-.02v2zm-.209-.027a.556.556 0 01-.278-.155.358.358 0 01-.082-.132l1.9-.632c-.131-.393-.468-.884-1.08-1.027l-.458 1.946zm-.357-.279a14.846 14.846 0 002.875 4.986l1.502-1.32a12.849 12.849 0 01-2.485-4.314l-1.892.648zm2.874 4.985a13.485 13.485 0 004.645 3.455l.814-1.828a11.485 11.485 0 01-3.955-2.945l-1.504 1.318zm4.644 3.454l.47.21.816-1.826-.47-.21-.816 1.826zm.43.191a.584.584 0 01-.15-.107l1.415-1.414a1.441 1.441 0 00-.37-.267l-.894 1.788zm-.149-.107l.01.01 1.414-1.414-.01-.01-1.414 1.414zm-.064-.072a.783.783 0 01-.151-.306.601.601 0 01-.018-.139h2c0-.122-.01-.481-.27-.805l-1.56 1.25zM16.67 67.21c0-.02.001-.072.018-.14a.784.784 0 01.151-.305l1.562 1.25c.258-.323.269-.682.269-.805h-2zm.243-.527l-.01.01 1.414 1.414.01-.01-1.414-1.414zm-.103.117a.798.798 0 01.194-.184c.042-.028.078-.045.049-.03l.894 1.788c.018-.008.272-.119.463-.374l-1.6-1.2zm.282-.233l-.47.21.816 1.826.47-.21-.816-1.826zm-.469.21a13.484 13.484 0 00-4.645 3.454l1.504 1.318a11.485 11.485 0 013.955-2.945l-.814-1.828zM11.98 70.23a14.847 14.847 0 00-2.875 4.986l1.892.648a12.849 12.849 0 012.485-4.314l-1.502-1.32zM9.1 75.224a.358.358 0 01.082-.132.556.556 0 01.278-.155l.458 1.946c.612-.143.949-.634 1.08-1.027L9.1 75.224zm.589-.314h-.02v2h.02v-2zm.209.027a.556.556 0 01.278.155c.049.052.07.1.082.132l-1.898.632c.131.393.468.884 1.08 1.027l.458-1.946zm.357.279A14.846 14.846 0 007.38 70.23l-1.5 1.32a12.848 12.848 0 012.485 4.314l1.892-.648zM7.382 70.23a13.485 13.485 0 00-4.645-3.455l-.814 1.828a11.47 11.47 0 013.955 2.945l1.504-1.318zm-4.644-3.454l-.47-.21-.816 1.826.47.21.816-1.826zm-.43-.191c-.03-.015.006.002.048.03a.796.796 0 01.194.184L.95 68c.191.255.445.366.463.374l.894-1.788zm.15.107l-.01-.01-1.415 1.414.01.01 1.414-1.414zm.114.142a.715.715 0 01.118.375h-2c0 .184.034.458.218.735l1.664-1.11zm.118.375a.6.6 0 01-.018.14.784.784 0 01-.151.305l-1.562-1.25a1.286 1.286 0 00-.269.805h2zm-.243.527l.01-.01-1.414-1.414-.01.01 1.414 1.414zm.103-.117a.8.8 0 01-.194.185c-.042.027-.078.044-.049.03l-.894-1.79c-.018.01-.272.12-.463.375l1.6 1.2zm-.282.233l.47-.21-.816-1.826-.47.21.816 1.826zm.469-.21a13.485 13.485 0 004.645-3.454L5.878 62.87a11.484 11.484 0 01-3.955 2.945l.814 1.828zM7.38 64.19a14.846 14.846 0 002.875-4.986l-1.892-.648A12.848 12.848 0 015.88 62.87l1.502 1.32zm2.878-4.994a.358.358 0 01-.082.132.556.556 0 01-.278.155l-.458-1.946c-.612.144-.949.634-1.08 1.027l1.898.632zm-.589.314h.02v-2h-.02v2zm-.209-.027a.556.556 0 01-.278-.155.358.358 0 01-.082-.132l1.9-.632c-.131-.393-.468-.883-1.08-1.027l-.458 1.946zm-.357-.279a14.847 14.847 0 002.875 4.986l1.502-1.32a12.849 12.849 0 01-2.485-4.314l-1.892.648zm2.874 4.985a13.484 13.484 0 004.645 3.455l.814-1.828a11.485 11.485 0 01-3.955-2.945l-1.504 1.318zm4.644 3.454l.47.21.816-1.826-.47-.21-.816 1.826zm.43.191a.584.584 0 01-.15-.107l1.415-1.414a1.443 1.443 0 00-.37-.267l-.894 1.788zm-.15-.107l.01.01 1.415-1.414-.01-.01-1.414 1.414zm-.063-.072a.784.784 0 01-.151-.305.601.601 0 01-.018-.14h2c0-.123-.01-.481-.27-.805l-1.56 1.25zM29 6.47a.8.8 0 01.138-.445l1.664 1.11c.154-.231.198-.477.198-.665h-2zm.263-.597l-.01.01 1.414 1.414.01-.01-1.414-1.414zm-.01.01l.018-.017a.776.776 0 01.182-.12l.894 1.788c.12-.06.204-.13.241-.163.04-.034.074-.069.08-.074l-1.415-1.414zm.238-.156l-.29.13.818 1.826.29-.13-.818-1.826zm-.299.135a8.6 8.6 0 00-2.954 2.27l1.524 1.295a6.601 6.601 0 012.266-1.749l-.836-1.816zM26.24 8.13c-.8.935-1.41 2.04-1.818 3.251l1.896.638A7.78 7.78 0 0127.76 9.43l-1.52-1.3zm-1.81 3.228a.645.645 0 01.433-.386l.574 1.916c.485-.146.758-.53.873-.846l-1.88-.684zm.72-.428h-.01v2h.01v-2zm.277.042c.285.085.398.29.433.386l-1.88.684c.115.316.388.7.873.846l.574-1.916zm.44.41A9.776 9.776 0 0024.05 8.13l-1.52 1.3a7.78 7.78 0 011.442 2.589l1.896-.638zm-1.815-3.25a8.6 8.6 0 00-2.954-2.27l-.836 1.816c.856.394 1.622.99 2.266 1.75l1.524-1.295zM21.09 5.858l-.29-.13-.818 1.826.29.13.818-1.826zm-.252-.111a.789.789 0 01.234.176c.037.04.1.113.153.22l-1.788.895c.105.212.258.333.306.371.07.054.14.096.2.126l.895-1.788zm-.507.844l1-.001v-.032a.96.96 0 00-.014-.133 1.009 1.009 0 00-.996-.844v2a.99.99 0 01-.99-.957v-.032l1-.001zm.822-.565a.862.862 0 01.116.257.76.76 0 01.022.188h-2a1.233 1.233 0 00.198.665l1.664-1.11zm.138.445a.734.734 0 01-.076.327l-1.788-.894a1.265 1.265 0 00-.136.567h2zm-.263.587l.01-.01-1.414-1.414-.01.01 1.414 1.414zm.01-.01l-.018.017a.781.781 0 01-.182.12l-.894-1.788c-.12.06-.204.13-.242.163-.04.034-.073.069-.078.074l1.414 1.414zm-.238.156l.29-.13-.818-1.826-.29.13.818 1.826zm.299-.135a8.6 8.6 0 002.954-2.27l-1.524-1.295a6.601 6.601 0 01-2.266 1.749l.836 1.816zM24.05 4.8c.8-.935 1.41-2.04 1.818-3.251L23.972.91A7.78 7.78 0 0122.53 3.5l1.52 1.3zm1.81-3.228a.645.645 0 01-.433.386L24.853.042c-.485.145-.758.53-.873.846l1.88.684zM25.14 2h.01V0h-.01v2zm-.277-.042a.645.645 0 01-.433-.386l1.88-.684c-.115-.316-.388-.7-.873-.846l-.574 1.916zm-.44-.41A9.777 9.777 0 0026.24 4.8l1.52-1.3A7.78 7.78 0 0126.318.911l-1.896.638zm1.815 3.25a8.6 8.6 0 002.954 2.27l.836-1.816a6.601 6.601 0 01-2.266-1.75l-1.524 1.295zM29.2 7.072l.29.13.818-1.826-.29-.13-.818 1.826zm.252.111a.79.79 0 01-.234-.176.936.936 0 01-.153-.22l1.788-.895a1.09 1.09 0 00-.306-.371 1.212 1.212 0 00-.2-.126l-.895 1.788zm.507-.844l-1 .001v.032a.96.96 0 00.014.133 1.012 1.012 0 00.996.844v-2a.99.99 0 01.99.957v.017a.22.22 0 000 .008v.007l-1 .001zm-.884.457A.734.734 0 0129 6.47h2c0-.213-.054-.405-.136-.567l-1.788.894z" fill="#3C48EE"/></svg>