<svg width="82" height="92" fill="none" xmlns="http://www.w3.org/2000/svg"><path d="M48.042 69.06c0 4.036-3.264 7.31-7.287 7.31s-7.287-3.274-7.287-7.31c0-4.422 7.287-13.55 7.287-13.55s7.287 9.458 7.287 13.55zM0 84.52c4.035 0 4.035 3.207 8.07 3.207 4.034 0 4.034-3.206 8.069-3.206 4.035 0 4.035 3.206 8.07 3.206 4.034 0 4.034-3.206 8.069-3.206 4.034 0 4.034 3.206 8.058 3.206 4.034 0 4.034-3.206 8.07-3.206 4.034 0 4.034 3.206 8.08 3.206 4.035 0 4.035-3.206 8.08-3.206M0 69.742c4.035 0 4.035 3.206 8.07 3.206 4.034 0 4.034-3.206 8.069-3.206 4.035 0 4.035 3.206 8.07 3.206" fill="#fff"/><path d="M81 86.794c-1.224 0-1.723.398-2.63 1.114-1.11.887-2.64 2.092-5.44 2.092-2.81 0-4.329-1.216-5.44-2.092-.895-.716-1.393-1.114-2.629-1.114-1.224 0-1.723.398-2.63 1.114-1.11.887-2.64 2.092-5.44 2.092-2.799 0-4.329-1.216-5.44-2.092-.895-.716-1.393-1.114-2.629-1.114v-4.547c2.811 0 4.33 1.216 5.44 2.092.896.716 1.395 1.114 2.63 1.114 1.224 0 1.722-.398 2.63-1.114 1.11-.887 2.629-2.092 5.44-2.092 2.81 0 4.329 1.216 5.44 2.092.895.716 1.393 1.114 2.629 1.114 1.224 0 1.722-.398 2.629-1.114 1.11-.887 2.64-2.092 5.44-2.092m-1.133-14.778v4.547c-1.236 0-1.723.398-2.63 1.114-1.11.875-2.63 2.092-5.44 2.092-2.81 0-4.33-1.217-5.44-2.092-.906-.716-1.394-1.114-2.63-1.114-1.223 0-1.722.386-2.617 1.114-1.11.875-2.64 2.092-5.44 2.092h-.136v-4.559c.045.012.09.012.136.012 1.224 0 1.722-.398 2.618-1.114 1.11-.887 2.64-2.092 5.44-2.092 2.81 0 4.33 1.205 5.44 2.092.907.716 1.405 1.114 2.63 1.114 1.223 0 1.722-.398 2.629-1.114 1.11-.887 2.629-2.092 5.44-2.092zM31.156 42.062c5.627 0 10.188-8.907 10.188-19.894 0-10.987-4.561-19.894-10.188-19.894-5.627 0-10.19 8.907-10.19 19.894 0 10.987 4.563 19.894 10.19 19.894z" fill="#fff"/><path d="M40.222 42.062c5.627 0 10.19-8.907 10.19-19.894 0-10.987-4.563-19.894-10.19-19.894S30.034 11.18 30.034 22.168c0 10.987 4.561 19.894 10.188 19.894z" fill="#fff"/><path d="M0 84.52c4.035 0 4.035 3.207 8.07 3.207 4.034 0 4.034-3.206 8.069-3.206 4.035 0 4.035 3.206 8.07 3.206 4.034 0 4.034-3.206 8.069-3.206 4.034 0 4.034 3.206 8.058 3.206 4.034 0 4.034-3.206 8.07-3.206 4.034 0 4.034 3.206 8.08 3.206 4.035 0 4.035-3.206 8.08-3.206M0 69.742c4.035 0 4.035 3.206 8.07 3.206 4.034 0 4.034-3.206 8.069-3.206 4.035 0 4.035 3.206 8.07 3.206M81 86.794c-1.224 0-1.723.398-2.63 1.114-1.11.887-2.64 2.092-5.44 2.092-2.81 0-4.329-1.216-5.44-2.092-.895-.716-1.393-1.114-2.629-1.114-1.224 0-1.723.398-2.63 1.114-1.11.887-2.64 2.092-5.44 2.092-2.799 0-4.329-1.216-5.44-2.092-.895-.716-1.393-1.114-2.629-1.114v-4.547c2.811 0 4.33 1.216 5.44 2.092.896.716 1.395 1.114 2.63 1.114 1.224 0 1.722-.398 2.63-1.114 1.11-.887 2.629-2.092 5.44-2.092 2.81 0 4.329 1.216 5.44 2.092.895.716 1.393 1.114 2.629 1.114 1.224 0 1.722-.398 2.629-1.114 1.11-.887 2.64-2.092 5.44-2.092M0 2.274h40.868M0 42.062h39.78m8.262 26.998c0 4.036-3.264 7.31-7.287 7.31s-7.287-3.274-7.287-7.31c0-4.422 7.287-13.55 7.287-13.55s7.287 9.458 7.287 13.55zm31.825-1.591v4.547c-1.236 0-1.723.398-2.63 1.114-1.11.875-2.63 2.092-5.44 2.092-2.81 0-4.33-1.217-5.44-2.092-.906-.716-1.394-1.114-2.63-1.114-1.223 0-1.722.386-2.617 1.114-1.11.875-2.64 2.092-5.44 2.092h-.136v-4.559c.045.012.09.012.136.012 1.224 0 1.722-.398 2.618-1.114 1.11-.887 2.64-2.092 5.44-2.092 2.81 0 4.33 1.205 5.44 2.092.907.716 1.405 1.114 2.63 1.114 1.223 0 1.722-.398 2.629-1.114 1.11-.887 2.629-2.092 5.44-2.092zM41.344 22.168c0 10.987-4.561 19.894-10.188 19.894-5.627 0-10.19-8.907-10.19-19.894 0-10.987 4.563-19.894 10.19-19.894s10.188 8.907 10.188 19.894zm-1.122 19.894c5.627 0 10.19-8.907 10.19-19.894 0-10.987-4.563-19.894-10.19-19.894S30.034 11.18 30.034 22.168c0 10.987 4.561 19.894 10.188 19.894z" stroke="#3C48EE" stroke-width="4" stroke-miterlimit="10"/></svg>