<svg width="49" height="49" fill="none" xmlns="http://www.w3.org/2000/svg"><path fill-rule="evenodd" clip-rule="evenodd" d="M46.89 45.304a3.064 3.064 0 000-4.33l-8.735-8.735a3.064 3.064 0 00-4.331 0l-1.53 1.53a3.064 3.064 0 000 4.33l8.735 8.735a3.064 3.064 0 004.331 0l1.53-1.53z" fill="#fff"/><path fill-rule="evenodd" clip-rule="evenodd" d="M42.875 21.438C42.875 9.605 33.269 0 21.437 0 9.607 0 0 9.606 0 21.438c0 11.831 9.606 21.437 21.438 21.437 11.831 0 21.437-9.606 21.437-21.438zm-6.412 0c0-8.293-6.733-15.026-15.026-15.026-8.292 0-15.025 6.733-15.025 15.025 0 8.293 6.733 15.026 15.025 15.026 8.293 0 15.026-6.733 15.026-15.026z" fill="#fff"/></svg>