<svg width="81" height="90" viewBox="0 0 81 90" fill="none" xmlns="http://www.w3.org/2000/svg">
<path d="M48.0424 69.0602C48.0424 73.0958 44.7784 76.3698 40.755 76.3698C36.7316 76.3698 33.4676 73.0958 33.4676 69.0602C33.4676 64.6381 40.755 55.5096 40.755 55.5096C40.755 55.5096 48.0424 64.9678 48.0424 69.0602Z" stroke="#3C48EE" stroke-width="4" stroke-miterlimit="10"/>
<path d="M0 84.5206C4.0347 84.5206 4.0347 87.7264 8.0694 87.7264C12.1041 87.7264 12.1041 84.5206 16.1388 84.5206C20.1735 84.5206 20.1735 87.7264 24.2082 87.7264C28.2429 87.7264 28.2429 84.5206 32.2776 84.5206C36.3123 84.5206 36.3123 87.7264 40.3357 87.7264C44.3704 87.7264 44.3704 84.5206 48.4051 84.5206C52.4398 84.5206 52.4398 87.7264 56.4858 87.7264C60.5205 87.7264 60.5205 84.5206 64.5665 84.5206" stroke="#3C48EE" stroke-width="4" stroke-miterlimit="10"/>
<path d="M0 69.7423C4.0347 69.7423 4.0347 72.9481 8.0694 72.9481C12.1041 72.9481 12.1041 69.7423 16.1388 69.7423C20.1735 69.7423 20.1735 72.9481 24.2082 72.9481" stroke="#3C48EE" stroke-width="4" stroke-miterlimit="10"/>
<path d="M81 86.7942C79.776 86.7942 79.2773 87.1921 78.3706 87.9083C77.26 88.795 75.73 90 72.9306 90C70.1199 90 68.6012 88.7836 67.4906 87.9083C66.5952 87.1921 66.0965 86.7942 64.8612 86.7942C63.6372 86.7942 63.1385 87.1921 62.2318 87.9083C61.1212 88.795 59.5912 90 56.7918 90C53.9924 90 52.4624 88.7836 51.3518 87.9083C50.4564 87.1921 49.9577 86.7942 48.7224 86.7942V82.2471C51.5331 82.2471 53.0518 83.4634 54.1624 84.3388C55.0578 85.055 55.5565 85.4528 56.7918 85.4528C58.0158 85.4528 58.5145 85.055 59.4212 84.3388C60.5318 83.4521 62.0505 82.2471 64.8612 82.2471C67.6719 82.2471 69.1906 83.4634 70.3012 84.3388C71.1966 85.055 71.6953 85.4528 72.9306 85.4528C74.1546 85.4528 74.6533 85.055 75.56 84.3388C76.6706 83.4521 78.2006 82.2471 81 82.2471" fill="#3C48EE"/>
<path d="M79.8667 67.4688V72.0159C78.6313 72.0159 78.144 72.4138 77.2373 73.13C76.1266 74.0053 74.6079 75.2217 71.7973 75.2217C68.9866 75.2217 67.4679 74.0053 66.3572 73.13C65.4505 72.4138 64.9632 72.0159 63.7279 72.0159C62.5038 72.0159 62.0052 72.4024 61.1098 73.13C59.9992 74.0053 58.4691 75.2217 55.6698 75.2217H55.5338V70.6631C55.5791 70.6745 55.6245 70.6745 55.6698 70.6745C56.8938 70.6745 57.3925 70.2766 58.2878 69.5605C59.3985 68.6738 60.9285 67.4688 63.7279 67.4688C66.5385 67.4688 68.0572 68.6738 69.1679 69.5605C70.0746 70.2766 70.5732 70.6745 71.7973 70.6745C73.0213 70.6745 73.5199 70.2766 74.4266 69.5605C75.5373 68.6738 77.056 67.4688 79.8667 67.4688Z" fill="#3C48EE"/>
<path d="M31.1556 42.0614C36.7827 42.0614 41.3443 33.1546 41.3443 22.1675C41.3443 11.1804 36.7827 2.27356 31.1556 2.27356C25.5285 2.27356 20.9668 11.1804 20.9668 22.1675C20.9668 33.1546 25.5285 42.0614 31.1556 42.0614Z" stroke="#3C48EE" stroke-width="4" stroke-miterlimit="10"/>
<path d="M0 2.27356H40.8683" stroke="#3C48EE" stroke-width="3.9193" stroke-miterlimit="10"/>
<path d="M0 42.0614H39.7803" stroke="#3C48EE" stroke-width="3.9193" stroke-miterlimit="10"/>
<path d="M40.2223 42.0614C45.8494 42.0614 50.4111 33.1546 50.4111 22.1675C50.4111 11.1804 45.8494 2.27356 40.2223 2.27356C34.5952 2.27356 30.0336 11.1804 30.0336 22.1675C30.0336 33.1546 34.5952 42.0614 40.2223 42.0614Z" fill="white" stroke="#3C48EE" stroke-width="4" stroke-miterlimit="10"/>
</svg>
