<svg width="75" height="90" viewBox="0 0 75 90" fill="none" xmlns="http://www.w3.org/2000/svg">
<path d="M51.1954 65.4792C51.1954 73.0973 45.0644 79.2762 37.5054 79.2762C29.9463 79.2762 23.8153 73.0973 23.8153 65.4792C23.8153 57.136 37.5054 39.8978 37.5054 39.8978C37.5054 39.8978 51.1954 57.7528 51.1954 65.4792Z" stroke="#3C48EE" stroke-width="4" stroke-miterlimit="10"/>
<path d="M30.9878 67.9464C32.0293 70.5327 34.5526 72.3615 37.4946 72.3615C40.4581 72.3615 43.0029 70.511 44.0229 67.8815" stroke="#3C48EE" stroke-width="4" stroke-miterlimit="10"/>
<path d="M15.9663 22.9734H59.0336C63.1782 22.9734 66.6679 26.0791 67.194 30.2236L72.8203 83.2151C73.1317 85.6715 71.2312 87.8357 68.7724 87.8357H6.22762C3.76878 87.8357 1.86827 85.6607 2.17966 83.2151L7.806 30.2236C8.32139 26.0791 11.8217 22.9734 15.9663 22.9734Z" stroke="#3C48EE" stroke-width="4" stroke-miterlimit="10"/>
<path d="M54.8031 38.2854V19.608C54.8031 10.0096 47.0186 2.16418 37.4946 2.16418C27.9814 2.16418 20.1861 10.0096 20.1861 19.608V38.2962" stroke="#3C48EE" stroke-width="4" stroke-miterlimit="10"/>
</svg>
