<svg width="118" height="80" viewBox="0 0 118 80" fill="none" xmlns="http://www.w3.org/2000/svg">
<g clip-path="url(#clip0)">
<path d="M115.29 49.19C115.29 59.5 106.93 67.86 96.62 67.86C86.31 67.86 77.95 59.5 77.95 49.19C77.95 37.91 96.62 14.59 96.62 14.59C96.62 14.59 115.29 38.73 115.29 49.19Z" stroke="#3C48EE" stroke-width="4" stroke-miterlimit="10"/>
<path d="M87.75 52.5199C89.17 56.0299 92.61 58.4999 96.62 58.4999C100.66 58.4999 104.12 55.9899 105.52 52.4399" stroke="#3C48EE" stroke-width="4" stroke-miterlimit="10"/>
<path d="M64.42 0V79.56" stroke="#3C48EE" stroke-width="4" stroke-miterlimit="10" stroke-linejoin="round"/>
<path d="M14.5 36.78C16.7975 36.78 18.66 34.9175 18.66 32.62C18.66 30.3225 16.7975 28.46 14.5 28.46C12.2025 28.46 10.34 30.3225 10.34 32.62C10.34 34.9175 12.2025 36.78 14.5 36.78Z" stroke="#3C48EE" stroke-width="4" stroke-miterlimit="10" stroke-linecap="round"/>
<path d="M41.96 35.95C44.2575 35.95 46.12 34.0875 46.12 31.79C46.12 29.4925 44.2575 27.63 41.96 27.63C39.6625 27.63 37.8 29.4925 37.8 31.79C37.8 34.0875 39.6625 35.95 41.96 35.95Z" stroke="#3C48EE" stroke-width="4" stroke-miterlimit="10" stroke-linecap="round"/>
<path d="M31.97 65.9C34.2675 65.9 36.13 64.0375 36.13 61.74C36.13 59.4425 34.2675 57.58 31.97 57.58C29.6725 57.58 27.81 59.4425 27.81 61.74C27.81 64.0375 29.6725 65.9 31.97 65.9Z" stroke="#3C48EE" stroke-width="4" stroke-miterlimit="10" stroke-linecap="round"/>
<path d="M21.16 15.98C22.34 15.98 27.59 20.97 32.81 20.97C38.65 20.97 38.63 15.98 44.46 15.98" stroke="#3C48EE" stroke-width="4" stroke-miterlimit="10" stroke-linecap="round"/>
<path d="M18.47 65.09C17.64 64.26 17.45 57.01 13.76 53.32C9.63 49.19 6.12 52.73 2 48.61" stroke="#3C48EE" stroke-width="4" stroke-miterlimit="10" stroke-linecap="round"/>
<path d="M48.43 60.1C47.6 59.27 47.41 52.02 43.72 48.33C39.59 44.2 36.07 47.74 31.95 43.62" stroke="#3C48EE" stroke-width="4" stroke-miterlimit="10" stroke-linecap="round"/>
</g>
<defs>
<clipPath id="clip0">
<rect width="117.29" height="79.56" fill="white"/>
</clipPath>
</defs>
</svg>
