<svg width="158" height="108" viewBox="0 0 158 108" fill="none" xmlns="http://www.w3.org/2000/svg">
<path d="M89.2307 102.045L89.2746 104H91.2302H153.81H155.81V102V84.7802V82.7802H153.81H123.365L138.448 66.9908C138.449 66.989 138.451 66.9872 138.453 66.9854C144.757 60.4682 148.907 54.9362 151.469 49.5548C154.05 44.1315 154.97 38.9636 154.97 33.2602C154.97 14.1108 139.23 2.8402 122.31 2.8402C105.406 2.8402 94.6906 11.2854 88.7762 22.0791L87.9215 23.639L89.3709 24.6699L102.951 34.3299L104.713 35.5832L105.825 33.7292C109.7 27.2713 114.82 24.4802 120.91 24.4802C127.168 24.4802 131.65 29.1268 131.65 35.5002C131.65 42.2911 127.233 48.1877 119.331 56.371L119.321 56.3813L119.312 56.3917L89.4917 88.1717L88.9323 88.7678L88.9507 89.5851L89.2307 102.045ZM41.96 105.26C54.2864 105.26 64.2581 99.9881 71.0898 90.8421C77.8775 81.7551 81.48 68.9735 81.48 53.9802C81.48 38.0676 77.5927 25.2676 70.6416 16.3989C63.6523 7.48158 53.6837 2.7002 41.96 2.7002C29.7008 2.7002 19.7313 7.97441 12.8842 17.1162C6.07946 26.2015 2.44 38.9827 2.44 53.9802C2.44 69.8247 6.32815 82.623 13.2771 91.5074C20.2638 100.44 30.2312 105.26 41.96 105.26ZM41.96 83.4802C37.228 83.4802 33.3073 80.9623 30.4672 75.9841C27.5866 70.9351 25.9 63.4445 25.9 53.9802C25.9 43.943 27.6261 36.4331 30.5088 31.505C33.3364 26.6714 37.2409 24.3402 41.96 24.3402C46.8506 24.3402 50.7601 26.8417 53.553 31.7928C56.3976 36.8355 58.02 44.3582 58.02 53.9802C58.02 64.0245 56.3266 71.4958 53.4641 76.3846C50.663 81.1685 46.7652 83.4802 41.96 83.4802Z" stroke="#3C48EE" stroke-width="4"/>
</svg>
