<svg width="43" height="40" fill="none" xmlns="http://www.w3.org/2000/svg"><path d="M38.279 37.993c-4.105 2.281-9.305.847-11.608-3.214l-5.356-9.402v-.006l2.259-3.968c3.285-5.773 11.676-5.804 15.011-.074l.044.068 2.916 5.124c2.29 4.055.838 9.191-3.266 11.472z" fill="#EF8031"/><path d="M39.077 21.832c-3.37-5.799-11.874-5.774-15.2.075l-2.288 4.017v.006l-.006-.006-5.424 9.515C13.82 39.543 8.555 41 4.405 38.692.248 36.383-1.228 31.185 1.11 27.087l12.958-22.74C16.406.243 21.67-1.214 25.828 1.1a7.987 7.987 0 011.47 1.032 8.627 8.627 0 011.812 2.215v.006c.007-.006.007-.006.013-.006l9.954 17.485z" fill="#3C48EE"/></svg>