<svg width="186" height="44" fill="none" xmlns="http://www.w3.org/2000/svg"><path d="M38.279 37.993c-4.105 2.281-9.305.847-11.608-3.214l-5.356-9.402v-.006l2.259-3.968c3.285-5.773 11.676-5.804 15.011-.074l.044.068 2.916 5.124c2.29 4.055.838 9.191-3.266 11.472z" fill="#EF8031"/><path d="M39.077 21.832c-3.37-5.799-11.874-5.774-15.2.075l-2.288 4.017v.006l-.006-.006-5.424 9.515C13.82 39.543 8.555 41 4.405 38.692.248 36.383-1.228 31.185 1.11 27.087l12.958-22.74C16.406.243 21.67-1.214 25.828 1.1a7.987 7.987 0 011.47 1.032 8.627 8.627 0 011.812 2.215v.006c.007-.006.007-.006.013-.006l9.954 17.485z" fill="#3C48EE"/><path d="M60.961 24.294l4.903-14.778c.208-.654.49-.792 1.113-.792h2.49c.603 0 .93.163 1.118.742l4.928 14.828c.207.604.025.93-.629.93h-2.231c-1.094 0-1.414-.207-1.603-.905l-.509-1.973h-4.74l-.559 1.973c-.189.698-.49.905-1.534.905H61.54c-.648 0-.786-.326-.579-.93zm8.668-5.299l-.81-3.18a24.303 24.303 0 01-.56-3.231h-.163c-.07.697-.233 2.068-.535 3.23l-.81 3.181h2.878zm10.693 5.28V9.68c0-.698.257-.956.93-.956h2.276c.697 0 .93.258.93.956v5.368h.836l2.904-5.507c.37-.698.56-.81 1.603-.81h2.344c.654 0 .837.42.535.974l-3.81 6.575c.63.465.975 1.188 1.44 2.162l2.646 5.739c.258.578.164 1.043-.56 1.043H90.21c-1.093 0-1.345-.138-1.672-.905l-1.86-4.3c-.396-.93-.673-1.275-1.628-1.275h-.604v5.531c0 .698-.232.956-.93.956H81.24c-.66-.007-.918-.258-.918-.956zm17.594 0V9.705c0-.723.258-.975.905-.975h5.972c2.929 0 4.903 1.647 4.903 4.438 0 1.559-.44 2.533-1.603 3.394v.07c1.37.697 2.206 1.973 2.206 3.997 0 2.93-1.955 4.602-5.255 4.602h-6.23c-.64-.007-.898-.258-.898-.956zm6.298-9.064c.861 0 1.415-.44 1.415-1.49s-.56-1.508-1.415-1.508h-2.162v2.998h2.162zm.44 6.506c.861 0 1.49-.51 1.49-1.603 0-1.119-.629-1.578-1.49-1.578h-2.602v3.187h2.602v-.006zm9.416 2.577l4.903-14.778c.208-.654.491-.792 1.113-.792h2.489c.604 0 .931.163 1.119.742l4.928 14.828c.208.604.025.93-.628.93h-2.232c-1.094 0-1.414-.207-1.603-.905l-.509-1.973h-4.739l-.56 1.973c-.188.698-.49.905-1.534.905h-2.162c-.654 0-.792-.326-.585-.93zm8.669-5.299l-.811-3.18a24.252 24.252 0 01-.56-3.231h-.163c-.069.697-.233 2.068-.534 3.23l-.811 3.181h2.879zm16.129 5.765v-1.044h-.559c-4.092 0-6.255-2.163-6.255-6.066v-1.465c0-3.903 2.163-6.066 6.255-6.066h.559V9.095c0-.698.233-.956.93-.956h2.232c.698 0 .93.258.93.956v1.024h.56c4.092 0 6.254 2.163 6.254 6.066v1.465c0 3.903-2.162 6.066-6.254 6.066h-.56v1.043c0 .723-.232.956-.93.956h-2.232c-.697 0-.93-.233-.93-.956zm.05-4.646V13.72h-.465c-1.508 0-2.275.767-2.275 2.3v1.792c0 1.534.767 2.3 2.275 2.3h.465zm4.463 0c1.509 0 2.276-.767 2.276-2.3v-1.792c0-1.534-.767-2.3-2.276-2.3h-.465v6.392h.465zm11.107-.905v-4.463c0-3.929 2.345-6.368 6.557-6.368 4.205 0 6.556 2.44 6.556 6.368v4.463c0 3.928-2.345 6.367-6.556 6.367-4.206 0-6.557-2.439-6.557-6.367zm8.97.138v-4.74c0-1.646-.836-2.507-2.413-2.507-1.578 0-2.42.86-2.42 2.508v4.74c0 1.646.836 2.507 2.42 2.507 1.577 0 2.413-.861 2.413-2.508zm9.674 4.928V9.68c0-.698.258-.956.931-.956h5.644c3.439 0 5.67 2.093 5.67 5.67s-2.187 5.645-5.645 5.645h-2.464v4.23c0 .698-.232.955-.93.955h-2.275c-.679 0-.931-.251-.931-.949zm6.299-7.951c1.137 0 1.81-.742 1.81-1.93 0-1.163-.654-1.955-1.81-1.955h-2.163v3.878h2.163v.007z" fill="#000"/><path d="M63.123 42.441V36.27h-1.898c-.088 0-.113-.032-.113-.114v-.17c0-.094.025-.119.113-.119h4.224c.082 0 .113.025.113.12v.17c0 .081-.025.113-.113.113h-1.892v6.172c0 .082-.025.113-.113.113h-.207c-.088 0-.114-.025-.114-.113zm4.947-.006v-6.45c0-.094.032-.119.114-.119h2.32c1.18 0 1.929.76 1.929 2.056 0 1.27-.748 2.036-1.93 2.036h-1.999v2.477c0 .094-.025.126-.113.126h-.207c-.082-.007-.114-.032-.114-.126zm2.414-2.898c.924 0 1.509-.59 1.509-1.622 0-1.037-.585-1.646-1.509-1.646h-1.98v3.268h1.98zm4.652 2.898v-6.45c0-.094.031-.119.113-.119h3.495c.082 0 .113.025.113.12v.17c0 .081-.025.113-.113.113H75.57v2.684h2.803c.082 0 .113.037.113.125v.17c0 .094-.025.12-.113.12H75.57v2.784h3.287c.082 0 .113.025.113.113v.17c0 .094-.025.126-.113.126h-3.608c-.088-.007-.113-.032-.113-.126zm6.619 0l-.013-6.45c0-.094.02-.119.107-.119h.226c.082 0 .107.025.107.12l.007 4.029c0 .66 0 1.257-.044 1.91h.025c.32-.603.622-1.13.98-1.715l2.684-4.28a.124.124 0 01.114-.064h.245c.081 0 .125.025.125.12l.007 6.449c0 .094-.026.126-.114.126h-.22c-.075 0-.106-.026-.106-.126l-.007-4.155c0-.616.02-1.182.057-1.779h-.025a37.025 37.025 0 01-.918 1.597l-2.772 4.394c-.038.062-.07.075-.126.075h-.239c-.075-.013-.1-.038-.1-.132zm1.024-8.31c-.025-.063-.012-.094.057-.113l.15-.044c.057-.019.095-.013.126.044.151.566.46.83 1 .83.547 0 .861-.264 1.018-.83.02-.057.05-.063.107-.057l.157.057c.07.019.088.05.07.113-.208.698-.63 1.03-1.352 1.03-.698 0-1.131-.332-1.333-1.03zm5.771 9.749v-1.609c0-.081.025-.113.113-.113h.365c.414-.314.949-.88.949-4.268v-1.898c0-.095.025-.12.113-.12h3.482c.082 0 .113.025.113.12v6.166h.585c.082 0 .113.025.113.113v1.61c0 .094-.025.125-.113.125h-.201c-.082 0-.113-.025-.113-.126v-1.32H88.97v1.32c0 .095-.025.126-.113.126h-.195c-.082 0-.113-.031-.113-.126zm4.708-1.722V36.27h-2.854v1.609c0 3.08-.465 3.865-.867 4.268h3.72v.006zm3.74.283l-.013-6.45c0-.094.02-.119.107-.119h.227c.081 0 .106.025.106.12l.007 4.029c0 .66 0 1.257-.05 1.91h.024c.321-.603.623-1.13.981-1.715l2.684-4.28a.125.125 0 01.113-.064h.245c.082 0 .126.025.126.12l.006 6.449c0 .094-.025.126-.113.126h-.22c-.075 0-.107-.026-.107-.126l-.006-4.155c0-.616.019-1.182.057-1.779h-.025a38.442 38.442 0 01-.918 1.597l-2.772 4.394c-.038.062-.07.075-.126.075h-.239c-.063-.013-.094-.038-.094-.132zm7.744 0v-6.45c0-.094.025-.119.113-.119h.208c.088 0 .113.025.113.12v2.967h3.602v-2.967c0-.095.025-.12.113-.12h.22c.081 0 .113.025.113.12v6.449c0 .094-.025.126-.113.126h-.22c-.082 0-.113-.026-.113-.126v-3.068h-3.602v3.068c0 .094-.025.126-.113.126h-.208c-.088-.007-.113-.032-.113-.126zm7.637 0v-6.45c0-.094.026-.119.107-.119h3.275c.076 0 .107.025.107.12v.163c0 .094-.025.126-.107.126h-2.942v6.166c0 .094-.025.126-.113.126h-.213c-.088-.013-.114-.038-.114-.132z" fill="#1D1D1B"/></svg>