<svg width="102" height="90" fill="none" xmlns="http://www.w3.org/2000/svg"><path d="M99.35 86.69h-7.11v-1.41c0-9.25.02-18.5-.01-27.75-.01-4.66-2.99-8.36-7.53-9.4-.6-.14-.74-.37-.73-.93.03-2.35.01-4.69.01-7.04 0-1.63-.36-1.98-2.02-1.99h-4.94V27.22c2.49 0 4.93.01 7.37-.01.53 0 1.08-.02 1.59-.16 2.2-.59 3.54-2.62 3.28-4.88-.26-2.25-2.08-3.93-4.44-3.99-2.24-.05-4.49-.01-6.73-.01-.35 0-.7-.03-1.11-.06 0-3.13.01-6.14 0-9.15 0-1.41-.46-1.87-1.86-1.87H45.47c-1.58 0-2.01.43-2.01 2.04-.01 1.57 0 3.13 0 4.75H25.24c0-.79.04-1.53-.01-2.25-.06-.8.13-1.3.92-1.73 1.95-1.07 2.7-3.52 1.86-5.59-.81-2-2.95-3.16-5.05-2.73-1.92.39-3.25 1.77-3.61 3.71-.36 1.78.55 3.67 2.21 4.71.31.2.76.48.79.76.09 1.02.04 2.06.04 3.19h-1.3c-3.08.01-4.93 1.86-4.94 4.94-.01 2.58 0 5.16 0 7.74v3.13c-.32.04-.55.1-.77.1-1.16.01-2.33 0-3.6 0 0-.9.01-1.69 0-2.49-.03-1.73-1.21-3.01-2.92-3.1-1-.05-2.01-.05-3.01-.01-1.73.08-2.94 1.33-2.94 3.06-.01 9.75-.01 19.5 0 29.25 0 1.74 1.19 2.98 2.93 3.08 1 .06 2.01.06 3.01 0 1.71-.1 2.89-1.38 2.93-3.1.01-.45 0-.91 0-1.36h4.43v31.47H4.19c-.47 0-.94-.02-1.41.02-.78.06-1.22.5-1.28 1.29-.06.79.37 1.27 1.1 1.46.32.08.67.05 1 .05h95.7c1.35 0 1.99-.47 1.97-1.45-.01-.92-.6-1.34-1.92-1.34zM8.9 56.82H5.78v-29.7H8.9v29.7zm7.32-4.53h-4.39V32.75h4.39v19.54zm67.84-31.46c.3 0 .61-.01.9.03.92.14 1.53.85 1.52 1.71-.01.87-.64 1.57-1.57 1.65-.73.06-1.47.03-2.21.03H67.64c-.37 0-.74 0-1.1-.09-.81-.21-1.25-.78-1.26-1.6-.01-.82.42-1.41 1.22-1.63.38-.11.79-.11 1.19-.11 5.46.01 10.91.01 16.37.01zm-62-14.77c-.01-.92.78-1.75 1.69-1.77.91-.02 1.71.77 1.72 1.71.02 1.01-.65 1.69-1.67 1.7-1.01.02-1.73-.66-1.74-1.64zm27.92 79.63c0 .3-.03.59-.04.95H18.96v-1.12c0-22.12 0-44.23.01-66.35 0-1.89.51-2.4 2.37-2.4h26.33c1.74 0 2.31.57 2.31 2.27v66.65zm22.93-.83v1.76H52.8v-1.11c0-22.01-.05-44.02.04-66.04.02-3.78-2.39-5.82-5.54-5.51-.3.03-.6 0-1.02 0V9.98h27.79v7.99c-.35.02-.7.05-1.05.05-1.94.01-3.89-.02-5.83.01-2.76.04-4.74 1.97-4.73 4.55.01 2.57 2.01 4.46 4.78 4.49 1.91.02 3.82 0 5.73 0h1.18v3.22c0 2.88-.01 5.76 0 8.64 0 1.4.48 1.88 1.86 1.89 1.67.01 3.34 0 5.08 0v6.88c-1.01.36-2.04.6-2.93 1.08-3.42 1.84-5.22 4.75-5.24 8.63-.04 9.15-.01 18.3-.01 27.45zm9.77-34.21c3.74.06 6.87 3.13 6.67 6.63H75.76c-.05-3.66 3.12-6.68 6.92-6.63zm6.68 35.98H75.81V60.19h13.55v26.44z" fill="#3E3EF7"/><path d="M3.18 90c-.22 0-.46-.01-.7-.07-1.01-.26-1.55-.98-1.48-1.98.07-1.03.71-1.66 1.74-1.75.36-.03.73-.03 1.1-.02H15.7V55.71h-3.43v.87c-.04 2-1.44 3.47-3.4 3.59-1.02.06-2.05.06-3.07 0-2-.12-3.4-1.59-3.4-3.58-.01-9.75-.02-19.5 0-29.26 0-2 1.41-3.47 3.42-3.56 1.02-.05 2.05-.05 3.06.01 1.96.1 3.35 1.58 3.39 3.59.01.54.01 1.09 0 1.66v.33h3.1c.09 0 .18-.01.28-.03V18.89c.01-3.35 2.09-5.43 5.44-5.44h.8c0-.15 0-.29.01-.44.01-.77.02-1.5-.04-2.21-.05-.07-.43-.31-.56-.39-1.84-1.16-2.84-3.26-2.47-5.21.4-2.14 1.89-3.68 4-4.11 2.34-.48 4.7.8 5.61 3.03.96 2.36.06 5.04-2.08 6.21-.57.31-.71.59-.66 1.25.04.52.03 1.03.02 1.58v.21h17.22V9.11c.01-1.87.66-2.54 2.51-2.54 9.88 0 19.77-.01 29.65 0 1.67 0 2.36.68 2.36 2.36.01 2.13 0 4.27 0 6.44v2.24c.31.02.6.03.9.03.65 0 1.3 0 1.95-.01 1.5-.01 3-.02 4.5.02 2.57.06 4.64 1.92 4.93 4.43.29 2.54-1.21 4.76-3.64 5.42-.58.16-1.19.17-1.72.18-1.79.01-3.58.01-5.39.01h-1.48v9.95h4.45c1.93.01 2.52.59 2.52 2.49v1.35c0 1.9.01 3.8-.01 5.7 0 .35 0 .36.35.44 4.79 1.1 7.9 4.98 7.92 9.89.02 6.6.02 13.19.01 19.79v8.87h6.61c1.59 0 2.41.63 2.43 1.85.01.55-.15.99-.48 1.33-.42.42-1.07.63-2 .63H14.77L3.61 90h-.43zm.29-2.82c-.22 0-.43 0-.65.02-.53.04-.78.29-.82.83-.02.34.04.76.73.94.19.04.41.03.65.03H99.3c.63 0 1.07-.11 1.28-.33.13-.13.19-.33.19-.61-.01-.37-.02-.87-1.43-.87h-7.61v-9.87c0-6.6.01-13.19-.01-19.79-.01-4.42-2.82-7.92-7.14-8.92-.81-.19-1.13-.6-1.12-1.43.02-1.89.02-3.79.01-5.68v-1.35c0-1.36-.13-1.49-1.53-1.49H76.5V26.72h2.48c1.81 0 3.6 0 5.38-.01.47 0 1-.02 1.46-.14 1.95-.53 3.14-2.31 2.91-4.34-.23-2.04-1.86-3.5-3.96-3.54-1.49-.04-2.98-.03-4.47-.02-.75 0-1.5.01-2.25.01-.25 0-.49-.02-.76-.03l-.85-.05V8.97c0-1.14-.23-1.37-1.36-1.37H45.43c-1.31 0-1.51.2-1.51 1.54v5.25H24.7v-.5c0-.25 0-.49.01-.73.01-.52.02-1-.02-1.48-.08-1.05.27-1.71 1.18-2.21 1.7-.93 2.41-3.07 1.64-4.96-.73-1.79-2.61-2.82-4.48-2.43-1.72.35-2.9 1.56-3.22 3.31-.29 1.56.52 3.24 2.02 4.19.51.32.97.65 1.02 1.14.07.76.06 1.52.05 2.32 0 .3-.01.61-.01.92v.5H21.1c-2.82.01-4.43 1.63-4.44 4.44v11.31l-.72.1c-.21.03-.38.06-.55.06-.85.01-1.71 0-2.61 0h-1.5v-2.98c-.03-1.48-1.01-2.53-2.44-2.61-.98-.05-1.98-.05-2.96-.01-1.47.07-2.46 1.1-2.47 2.57-.01 9.75-.01 19.5 0 29.25 0 1.48.97 2.49 2.46 2.58.98.05 1.97.05 2.96 0 1.44-.09 2.42-1.14 2.46-2.61.01-.31 0-.61 0-.92v-.93h5.44v32.47H3.47zm46.94-.04H18.46V19.17c0-2.17.72-2.9 2.87-2.9h26.33c2 0 2.81.8 2.81 2.77v66.65c0 .21-.01.41-.02.64l-.04.81zm-30.95-1h30c.01-.16.02-.3.02-.45V19.04c0-1.42-.36-1.77-1.81-1.77H21.34c-1.59 0-1.87.28-1.87 1.9l-.01 66.97zm70.4.99H75.3V59.7h14.55v27.43h.01zm-13.56-1h12.55V60.7H76.3v25.43zm-2.89.99H52.3l-.01-18.3c-.01-16.17-.02-32.9.05-49.35.01-1.71-.51-3.09-1.49-3.98-.89-.81-2.1-1.17-3.5-1.03-.21.02-.43.02-.68.01h-.88V9.48h28.79v8.97l-.8.04c-.49.03-.98.03-1.48.03h-1.41c-1.23-.01-2.46-.01-3.69.01-2.47.04-4.25 1.74-4.24 4.05.01 2.29 1.81 3.97 4.29 3.99 1.31.01 2.61.01 3.92 0h3.48v12.36c0 1.12.26 1.38 1.37 1.39 1.16.01 2.33.01 3.52 0h2.07v7.73l-.33.12c-.33.12-.65.22-.98.33-.68.21-1.31.42-1.88.72-3.29 1.77-4.96 4.52-4.98 8.19-.05 6.54-.04 13.06-.04 19.59l.01 10.12zm-20.11-1h19.11L72.4 77a3194 3194 0 01.02-19.58c.02-4.01 1.92-7.14 5.5-9.07.65-.35 1.37-.58 2.06-.8.2-.06.41-.13.61-.2v-6.02h-4.58c-1.67-.01-2.35-.7-2.36-2.39-.01-2.07 0-4.14 0-6.21v-5.16h-2.48c-1.31 0-2.62.01-3.93 0-3.04-.03-5.26-2.13-5.28-4.99-.01-2.88 2.18-5 5.22-5.05 1.24-.02 2.47-.02 3.71-.01h2.13c.19 0 .37-.01.55-.02v-7.02H46.78v2.99c.17 0 .32 0 .47-.01 1.67-.16 3.18.3 4.27 1.29 1.19 1.09 1.82 2.72 1.81 4.72-.07 16.45-.06 33.17-.05 49.35l.02 17.3zm36.53-28.33H75.27l-.01-.49c-.03-1.85.7-3.61 2.04-4.96 1.41-1.41 3.39-2.22 5.38-2.18 2.03.03 3.98.9 5.36 2.38 1.26 1.35 1.9 3.05 1.8 4.78l-.01.47zm-13.55-1h12.59c-.05-1.29-.58-2.54-1.54-3.57a6.512 6.512 0 00-4.65-2.06c-1.73-.04-3.44.66-4.66 1.88a5.838 5.838 0 00-1.74 3.75zm-66.88.53H5.28v-30.7H9.4v30.7zm-3.12-1H8.4v-28.7H6.28v28.7zm10.44-3.54h-5.39V32.25h5.39v20.53zm-4.38-1h3.39V33.25h-3.39v18.53zm71.47-27.01H67.64c-.39 0-.81 0-1.22-.11-1.03-.26-1.62-1.02-1.64-2.08-.01-1.05.58-1.84 1.59-2.12.44-.12.91-.12 1.32-.13 5.45-.01 10.91 0 16.36 0h.14c.27 0 .55 0 .84.04 1.16.18 1.96 1.09 1.94 2.22-.02 1.14-.87 2.04-2.03 2.14-.37.04-.75.04-1.13.04zm-.53-1c.55.01 1.07.01 1.59-.03.64-.05 1.1-.53 1.11-1.16.01-.62-.43-1.11-1.09-1.21-.22-.04-.45-.03-.68-.03H67.7c-.37 0-.75 0-1.06.09-.58.16-.86.55-.85 1.15.01.6.31.97.89 1.12.28.07.61.07.95.07h15.65zM23.78 8.21c-1.28 0-2.21-.9-2.23-2.14-.01-1.21.99-2.25 2.18-2.27.57 0 1.12.2 1.54.61.43.42.69 1 .7 1.59.01.63-.19 1.18-.58 1.58-.39.41-.94.62-1.58.63h-.03zm-1.22-2.15c.01.7.5 1.16 1.24 1.16.37 0 .67-.12.87-.33.2-.21.31-.51.3-.87-.01-.33-.15-.65-.39-.88-.23-.22-.52-.34-.82-.34-.64.01-1.21.61-1.2 1.26z" fill="#3E3EF7"/><path d="M35.74 25.04c-.6-1-1.95-.95-2.46.08-1.5 3.05-3.13 6.07-4.31 9.25-1.38 3.7 1.57 7.51 5.53 7.52 3.8.02 6.71-3.46 5.79-7.07-.89-3.54-2.69-6.69-4.55-9.78zm.57 13.49c-1.07.74-2.51.73-3.58-.02-1.12-.8-1.62-2.13-1.1-3.46.84-2.13 1.8-4.2 2.71-6.3l.4.03c.91 2.1 1.89 4.18 2.72 6.32.52 1.3-.03 2.65-1.15 3.43z" fill="#3E3EF7"/><path d="M34.53 42.38h-.03c-2.13-.01-4.11-1.04-5.3-2.77-1.12-1.62-1.38-3.6-.7-5.43.94-2.53 2.17-4.98 3.37-7.36.32-.64.65-1.29.96-1.93.32-.65.92-1.05 1.61-1.08.69-.02 1.34.33 1.73.96 1.91 3.17 3.7 6.3 4.61 9.91.46 1.81.05 3.71-1.12 5.21a6.452 6.452 0 01-5.13 2.49zm-.01-17.57h-.04c-.32.01-.6.2-.75.52-.32.65-.64 1.29-.97 1.94-1.18 2.35-2.4 4.78-3.32 7.26-.56 1.52-.35 3.16.58 4.51a5.467 5.467 0 004.48 2.34h.03c1.71 0 3.29-.77 4.34-2.1.98-1.25 1.32-2.84.94-4.34-.88-3.48-2.63-6.54-4.5-9.64-.18-.31-.48-.49-.79-.49zm.02 14.77c-.74 0-1.47-.22-2.1-.67-1.36-.97-1.86-2.56-1.28-4.05.6-1.51 1.26-3.02 1.91-4.48.27-.61.54-1.23.81-1.84l.14-.32 1.06.07.12.28c.27.62.55 1.24.82 1.86.65 1.46 1.32 2.96 1.91 4.48.56 1.46.02 3.08-1.34 4.03-.61.43-1.33.64-2.05.64zm0-10.04c-.18.42-.37.83-.55 1.25-.64 1.45-1.31 2.95-1.89 4.44-.42 1.06-.06 2.16.93 2.87.9.64 2.1.65 3 .02 1-.7 1.38-1.81.98-2.85-.58-1.49-1.24-2.99-1.89-4.43-.19-.43-.39-.86-.58-1.3z" fill="#3E3EF7"/></svg>