<svg width="118" height="80" fill="none" xmlns="http://www.w3.org/2000/svg"><path d="M96.62 14.59l1.582-1.224-1.555-2.01-1.588 1.984 1.561 1.25zm-75.46-.61a2 2 0 100 4v-4zm23.3 4a2 2 0 100-4v4zM17.056 66.504a2 2 0 102.828-2.828l-2.828 2.828zM3.414 47.196a2 2 0 10-2.828 2.828l2.828-2.828zm43.602 14.318a2 2 0 102.828-2.828l-2.828 2.828zM33.364 42.206a2 2 0 10-2.828 2.828l2.828-2.828zm79.926 6.984c0 9.205-7.465 16.67-16.67 16.67v4c11.415 0 20.67-9.255 20.67-20.67h-4zM96.62 65.86c-9.205 0-16.67-7.465-16.67-16.67h-4c0 11.415 9.255 20.67 20.67 20.67v-4zM79.95 49.19c0-2.365 1.008-5.608 2.731-9.323 1.697-3.657 3.977-7.543 6.285-11.123A174.459 174.459 0 0195.31 19.6a166.268 166.268 0 012.671-3.509l.151-.19.038-.048a1.12 1.12 0 00.009-.011l.002-.003-1.561-1.25-1.562-1.25v.002c-.002 0-.003.002-.004.004l-.011.014-.043.053a109.198 109.198 0 00-.764.977 170.8 170.8 0 00-2.14 2.83 178.53 178.53 0 00-6.492 9.356c-2.36 3.66-4.747 7.719-6.551 11.607-1.777 3.83-3.103 7.732-3.103 11.007h4zm16.67-34.6l-1.582 1.223v.001l.002.003.01.011.037.05a90.141 90.141 0 01.735.97c.504.672 1.226 1.645 2.093 2.847a196.785 196.785 0 016.352 9.345c2.311 3.636 4.595 7.554 6.295 11.18 1.733 3.698 2.728 6.826 2.728 8.97h4c0-3.086-1.339-6.898-3.106-10.668-1.801-3.842-4.185-7.92-6.541-11.627a200.105 200.105 0 00-6.484-9.54 192.106 192.106 0 00-2.9-3.914 11.238 11.238 0 00-.041-.054l-.011-.015a.238.238 0 01-.004-.005L96.62 14.59zM85.896 53.27c1.715 4.24 5.872 7.23 10.724 7.23v-4a7.569 7.569 0 01-7.016-4.73l-3.708 1.5zM96.62 60.5c4.889 0 9.07-3.038 10.761-7.326l-3.722-1.468A7.57 7.57 0 0196.62 56.5v4zM62.42 0v79.56h4V0h-4zM16.66 32.62a2.16 2.16 0 01-2.16 2.16v4a6.16 6.16 0 006.16-6.16h-4zm-2.16 2.16a2.16 2.16 0 01-2.16-2.16h-4a6.16 6.16 0 006.16 6.16v-4zm-2.16-2.16a2.16 2.16 0 012.16-2.16v-4a6.16 6.16 0 00-6.16 6.16h4zm2.16-2.16a2.16 2.16 0 012.16 2.16h4a6.16 6.16 0 00-6.16-6.16v4zm29.62 1.33a2.16 2.16 0 01-2.16 2.16v4a6.16 6.16 0 006.16-6.16h-4zm-2.16 2.16a2.16 2.16 0 01-2.16-2.16h-4a6.16 6.16 0 006.16 6.16v-4zm-2.16-2.16a2.16 2.16 0 012.16-2.16v-4a6.16 6.16 0 00-6.16 6.16h4zm2.16-2.16a2.16 2.16 0 012.16 2.16h4a6.16 6.16 0 00-6.16-6.16v4zm-7.83 32.11a2.16 2.16 0 01-2.16 2.16v4a6.16 6.16 0 006.16-6.16h-4zm-2.16 2.16a2.16 2.16 0 01-2.16-2.16h-4a6.16 6.16 0 006.16 6.16v-4zm-2.16-2.16a2.16 2.16 0 012.16-2.16v-4a6.16 6.16 0 00-6.16 6.16h4zm2.16-2.16a2.16 2.16 0 012.16 2.16h4a6.16 6.16 0 00-6.16-6.16v4zm-10.81-41.6c-.386 0-.564-.148-.286-.005.18.092.437.244.801.475.68.43 1.689 1.104 2.778 1.747 2.163 1.277 5.177 2.773 8.357 2.773v-4c-2.04 0-4.26-1-6.323-2.217-1.023-.604-1.874-1.178-2.674-1.684a14.816 14.816 0 00-1.117-.655c-.255-.13-.855-.434-1.536-.434v4zm11.65 4.99c3.683 0 5.615-1.676 7.131-2.977 1.393-1.196 2.368-2.013 4.519-2.013v-4c-3.68 0-5.61 1.678-7.124 2.977-1.391 1.194-2.37 2.013-4.526 2.013v4zM19.884 63.676c.275.274.297.507.2.208a11.3 11.3 0 01-.23-.903c-.177-.786-.414-1.976-.73-3.203-.627-2.433-1.701-5.624-3.95-7.872l-2.828 2.828c1.441 1.442 2.307 3.72 2.905 6.042.296 1.151.493 2.16.7 3.083.098.433.204.874.326 1.252.087.27.297.911.779 1.393l2.828-2.828zm-4.71-11.77c-2.604-2.604-5.154-2.786-7.145-2.939-1.83-.14-3.095-.251-4.615-1.771L.586 50.024c2.6 2.6 5.15 2.78 7.137 2.931 1.827.14 3.097.253 4.623 1.78l2.828-2.83zm34.67 6.78c.275.274.297.507.2.208a11.3 11.3 0 01-.23-.903c-.177-.786-.414-1.976-.73-3.203-.627-2.433-1.702-5.624-3.95-7.872l-2.828 2.828c1.442 1.442 2.307 3.72 2.905 6.042.296 1.151.493 2.16.7 3.083.098.433.204.874.326 1.252.087.27.297.911.779 1.393l2.828-2.828zm-4.71-11.77c-2.604-2.605-5.157-2.786-7.15-2.939-1.833-.14-3.1-.252-4.62-1.771l-2.828 2.828c2.6 2.6 5.153 2.78 7.143 2.931 1.83.14 3.101.254 4.627 1.78l2.828-2.83z" fill="#3C48EE"/></svg>