<svg width="75" height="90" fill="none" xmlns="http://www.w3.org/2000/svg"><path d="M30.988 67.947c1.041 2.586 3.565 4.415 6.507 4.415a7.007 7.007 0 006.528-4.48m10.78-29.597V19.608c0-9.598-7.784-17.444-17.308-17.444-9.514 0-17.309 7.846-17.309 17.444v18.688m31.01 27.183c0 7.618-6.132 13.797-13.69 13.797-7.56 0-13.69-6.179-13.69-13.797 0-8.343 13.69-25.581 13.69-25.581s13.69 17.855 13.69 25.581zm-35.23-42.505h43.068c4.144 0 7.634 3.105 8.16 7.25l5.626 52.991c.312 2.457-1.589 4.62-4.048 4.62H6.228c-2.46 0-4.36-2.174-4.048-4.62l5.626-52.991c.515-4.145 4.016-7.25 8.16-7.25z" stroke="#3C48EE" stroke-width="4" stroke-miterlimit="10"/></svg>