<svg width="82" height="96" viewBox="0 0 82 96" fill="none" xmlns="http://www.w3.org/2000/svg">
<g clip-path="url(#clip0)">
<path d="M32.96 86.32H56.58C61.42 86.32 65.27 82.26 65.02 77.43L62.62 31.86C62.38 27.37 58.68 23.86 54.18 23.86H35.36C30.87 23.86 27.16 27.38 26.92 31.86L24.52 77.43C24.27 82.27 28.12 86.32 32.96 86.32Z" stroke="#3C48EE" stroke-width="4" stroke-miterlimit="10"/>
<path d="M26.32 41.26C21.65 40.31 18.14 36.18 18.14 31.24H26.98" stroke="#3C48EE" stroke-width="4" stroke-miterlimit="10"/>
<path d="M30.63 17.25H58.25" stroke="#3C48EE" stroke-width="4" stroke-miterlimit="10" stroke-linejoin="round"/>
<path d="M23.63 93.25H66.25" stroke="#3C48EE" stroke-width="4" stroke-miterlimit="10"/>
<path d="M53.92 79.09H54.7C56.42 79.09 57.81 77.7 57.81 75.98V40.51C57.81 38.58 56.24 37.01 54.31 37.01C52.38 37.01 50.81 38.58 50.81 40.51V75.98C50.81 77.7 52.2 79.09 53.92 79.09Z" stroke="#3C48EE" stroke-width="4" stroke-miterlimit="10"/>
<path d="M63.51 33.0601H67.98C68.16 33.0601 68.35 33.0701 68.53 33.0801C73.7 33.4301 76.89 38.9501 74.9 43.7401L64.56 68.7701" stroke="#3C48EE" stroke-width="4" stroke-miterlimit="10"/>
<path d="M79.67 17.21C79.67 17.27 79.66 17.34 79.62 17.39L79.61 17.4C79.58 17.44 79.54 17.46 79.5 17.48L79.03 17.69C77.39 18.42 75.93 19.52 74.73 20.89C73.57 22.21 72.65 23.79 72.05 25.54C71.99 25.72 71.86 25.87 71.69 25.91H71.67C71.5 25.87 71.37 25.72 71.31 25.54C70.71 23.79 69.79 22.21 68.63 20.89C67.43 19.52 65.97 18.42 64.33 17.69L63.86 17.48C63.82 17.46 63.78 17.44 63.75 17.4L63.74 17.39C63.7 17.33 63.69 17.27 63.69 17.21C63.69 17.15 63.7 17.08 63.74 17.03L63.75 17.02C63.78 16.98 63.82 16.96 63.86 16.94L64.33 16.73C65.97 16 67.43 14.9 68.63 13.53C69.79 12.21 70.71 10.63 71.31 8.88001C71.37 8.70001 71.5 8.55001 71.67 8.51001H71.69C71.86 8.55001 71.99 8.70001 72.05 8.88001C72.65 10.63 73.57 12.21 74.73 13.53C75.93 14.9 77.39 16 79.03 16.73L79.5 16.94C79.54 16.96 79.58 16.99 79.61 17.02L79.62 17.03C79.66 17.08 79.67 17.15 79.67 17.21Z" stroke="#3C48EE" stroke-width="3.3411" stroke-miterlimit="10"/>
<path d="M17.67 67.21C17.67 67.27 17.66 67.34 17.62 67.39L17.61 67.4C17.58 67.44 17.54 67.46 17.5 67.48L17.03 67.69C15.39 68.42 13.93 69.52 12.73 70.89C11.57 72.21 10.65 73.79 10.05 75.54C9.99 75.72 9.86 75.87 9.69 75.91H9.67C9.5 75.87 9.37 75.72 9.31 75.54C8.71 73.79 7.79 72.21 6.63 70.89C5.43 69.52 3.97 68.42 2.33 67.69L1.86 67.48C1.82 67.46 1.78 67.44 1.75 67.4L1.74 67.39C1.7 67.33 1.69 67.27 1.69 67.21C1.69 67.15 1.7 67.08 1.74 67.03L1.75 67.02C1.78 66.98 1.82 66.96 1.86 66.94L2.33 66.73C3.97 66 5.43 64.9 6.63 63.53C7.79 62.21 8.71 60.63 9.31 58.88C9.37 58.7 9.5 58.55 9.67 58.51H9.69C9.86 58.55 9.99 58.7 10.05 58.88C10.65 60.63 11.57 62.21 12.73 63.53C13.93 64.9 15.39 66 17.03 66.73L17.5 66.94C17.54 66.96 17.58 66.99 17.61 67.02L17.62 67.03C17.66 67.08 17.67 67.15 17.67 67.21Z" stroke="#3C48EE" stroke-width="3.3411" stroke-miterlimit="10"/>
<path d="M30 6.47C30 6.51 29.99 6.55 29.97 6.58L29.96 6.59C29.94 6.61 29.92 6.63 29.9 6.64L29.61 6.77C28.61 7.23 27.73 7.92 27 8.78C26.29 9.61 25.74 10.6 25.37 11.7C25.33 11.81 25.25 11.9 25.15 11.93H25.14C25.04 11.9 24.96 11.81 24.92 11.7C24.55 10.6 24 9.61 23.29 8.78C22.56 7.92 21.68 7.23 20.68 6.77L20.39 6.64C20.37 6.63 20.34 6.61 20.33 6.59C20.33 6.59 20.33 6.58 20.32 6.58C20.3 6.55 20.29 6.5 20.29 6.47C20.29 6.43 20.3 6.39 20.32 6.35L20.33 6.34C20.35 6.32 20.37 6.3 20.39 6.29L20.68 6.16C21.68 5.7 22.56 5.01 23.29 4.15C24 3.32 24.55 2.33 24.92 1.23C24.96 1.12 25.04 1.03 25.14 1H25.15C25.25 1.03 25.33 1.12 25.37 1.23C25.74 2.33 26.29 3.32 27 4.15C27.73 5.01 28.61 5.7 29.61 6.16L29.9 6.29C29.92 6.3 29.95 6.32 29.96 6.34C29.96 6.34 29.96 6.35 29.97 6.35C29.99 6.39 30 6.43 30 6.47Z" stroke="#3C48EE" stroke-width="2" stroke-miterlimit="10"/>
</g>
<defs>
<clipPath id="clip0">
<rect width="81.34" height="95.25" fill="white"/>
</clipPath>
</defs>
</svg>
