<svg width="81" height="84" viewBox="0 0 81 84" fill="none" xmlns="http://www.w3.org/2000/svg">
<g clip-path="url(#clip0)">
<path d="M1.14001 63H9.64001H18.14" stroke="#3C48EE" stroke-width="4" stroke-miterlimit="10"/>
<path d="M21.14 16V2H9.14001V63" stroke="#3C48EE" stroke-width="4" stroke-miterlimit="10"/>
<path d="M79.14 63H70.64H62.14" stroke="#3C48EE" stroke-width="4" stroke-miterlimit="10"/>
<path d="M71.14 24V63" stroke="#3C48EE" stroke-width="4" stroke-miterlimit="10"/>
<path d="M79.14 30L40.14 3L1.14001 30" stroke="#3C48EE" stroke-width="4" stroke-miterlimit="10"/>
<path d="M56.75 66.22C56.75 74.84 49.76 81.83 41.14 81.83C32.52 81.83 25.53 74.84 25.53 66.22C25.53 56.78 41.14 37.28 41.14 37.28C41.14 37.28 56.75 57.47 56.75 66.22Z" stroke="#3C48EE" stroke-width="4" stroke-miterlimit="10"/>
<path d="M33.72 69.0001C34.91 71.9301 37.78 74.0001 41.14 74.0001C44.52 74.0001 47.41 71.9001 48.58 68.9301" stroke="#3C48EE" stroke-width="4" stroke-miterlimit="10"/>
<path d="M40.14 29.5C43.1776 29.5 45.64 27.0376 45.64 24C45.64 20.9624 43.1776 18.5 40.14 18.5C37.1024 18.5 34.64 20.9624 34.64 24C34.64 27.0376 37.1024 29.5 40.14 29.5Z" stroke="#3C48EE" stroke-width="4" stroke-miterlimit="10"/>
</g>
<defs>
<clipPath id="clip0">
<rect width="80.28" height="83.83" fill="white"/>
</clipPath>
</defs>
</svg>
