<svg width="101" height="89" viewBox="0 0 101 89" fill="none" xmlns="http://www.w3.org/2000/svg">
<g clip-path="url(#clip0)">
<path d="M98.35 85.69C96.04 85.69 93.73 85.69 91.24 85.69C91.24 85.13 91.24 84.71 91.24 84.28C91.24 75.03 91.26 65.78 91.23 56.53C91.22 51.87 88.24 48.17 83.7 47.13C83.1 46.99 82.96 46.76 82.97 46.2C83 43.85 82.98 41.51 82.98 39.16C82.98 37.53 82.62 37.18 80.96 37.17C79.33 37.17 77.69 37.17 76.02 37.17C76.02 33.47 76.02 29.91 76.02 26.22C78.51 26.22 80.95 26.23 83.39 26.21C83.92 26.21 84.47 26.19 84.98 26.05C87.18 25.46 88.52 23.43 88.26 21.17C88 18.92 86.18 17.24 83.82 17.18C81.58 17.13 79.33 17.17 77.09 17.17C76.74 17.17 76.39 17.14 75.98 17.11C75.98 13.98 75.99 10.97 75.98 7.96001C75.98 6.55001 75.52 6.09001 74.12 6.09001C64.24 6.09001 54.35 6.09001 44.47 6.09001C42.89 6.09001 42.46 6.52001 42.46 8.13001C42.45 9.70001 42.46 11.26 42.46 12.88C36.35 12.88 30.34 12.88 24.24 12.88C24.24 12.09 24.28 11.35 24.23 10.63C24.17 9.83001 24.36 9.33001 25.15 8.90001C27.1 7.83001 27.85 5.38001 27.01 3.31001C26.2 1.31001 24.06 0.150011 21.96 0.580011C20.04 0.970011 18.71 2.35001 18.35 4.29001C17.99 6.07001 18.9 7.96001 20.56 9.00001C20.87 9.20001 21.32 9.48001 21.35 9.76001C21.44 10.78 21.39 11.82 21.39 12.95C20.88 12.95 20.49 12.95 20.09 12.95C17.01 12.96 15.16 14.81 15.15 17.89C15.14 20.47 15.15 23.05 15.15 25.63C15.15 26.66 15.15 27.69 15.15 28.76C14.83 28.8 14.6 28.86 14.38 28.86C13.22 28.87 12.05 28.86 10.78 28.86C10.78 27.96 10.79 27.17 10.78 26.37C10.75 24.64 9.57 23.36 7.86 23.27C6.86 23.22 5.85 23.22 4.85 23.26C3.12 23.34 1.91 24.59 1.91 26.32C1.9 36.07 1.9 45.82 1.91 55.57C1.91 57.31 3.1 58.55 4.84 58.65C5.84 58.71 6.85 58.71 7.85 58.65C9.56 58.55 10.74 57.27 10.78 55.55C10.79 55.1 10.78 54.64 10.78 54.19C12.35 54.19 13.77 54.19 15.21 54.19C15.21 64.69 15.21 75.12 15.21 85.66C14.77 85.66 14.41 85.66 14.05 85.66C10.43 85.66 6.81 85.66 3.19 85.66C2.72 85.66 2.25 85.64 1.78 85.68C1 85.74 0.56 86.18 0.5 86.97C0.44 87.76 0.87 88.24 1.6 88.43C1.92 88.51 2.27 88.48 2.6 88.48C7.56 88.48 12.52 88.48 17.48 88.48C44.42 88.48 71.36 88.48 98.3 88.48C99.65 88.48 100.29 88.01 100.27 87.03C100.26 86.11 99.67 85.69 98.35 85.69ZM7.9 55.82C6.89 55.82 5.87 55.82 4.78 55.82C4.78 45.94 4.78 36.08 4.78 26.12C5.85 26.12 6.84 26.12 7.9 26.12C7.9 36.03 7.9 45.88 7.9 55.82ZM15.22 51.29C13.75 51.29 12.32 51.29 10.83 51.29C10.83 44.8 10.83 38.33 10.83 31.75C12.31 31.75 13.74 31.75 15.22 31.75C15.22 38.28 15.22 44.76 15.22 51.29ZM83.06 19.83C83.36 19.83 83.67 19.82 83.96 19.86C84.88 20 85.49 20.71 85.48 21.57C85.47 22.44 84.84 23.14 83.91 23.22C83.18 23.28 82.44 23.25 81.7 23.25C79.42 23.25 77.15 23.25 74.87 23.25C72.13 23.25 69.38 23.25 66.64 23.25C66.27 23.25 65.9 23.25 65.54 23.16C64.73 22.95 64.29 22.38 64.28 21.56C64.27 20.74 64.7 20.15 65.5 19.93C65.88 19.82 66.29 19.82 66.69 19.82C72.15 19.83 77.6 19.83 83.06 19.83ZM21.06 5.06001C21.05 4.14001 21.84 3.31001 22.75 3.29001C23.66 3.27001 24.46 4.06001 24.47 5.00001C24.49 6.01001 23.82 6.69001 22.8 6.70001C21.79 6.72001 21.07 6.04001 21.06 5.06001ZM48.98 84.69C48.98 84.99 48.95 85.28 48.94 85.64C38.58 85.64 28.34 85.64 17.96 85.64C17.96 85.23 17.96 84.88 17.96 84.52C17.96 62.4 17.96 40.29 17.97 18.17C17.97 16.28 18.48 15.77 20.34 15.77C29.12 15.77 37.9 15.77 46.67 15.77C48.41 15.77 48.98 16.34 48.98 18.04C48.98 40.25 48.98 62.47 48.98 84.69ZM71.91 83.86C71.91 84.42 71.91 84.99 71.91 85.62C65.19 85.62 58.55 85.62 51.8 85.62C51.8 85.22 51.8 84.86 51.8 84.51C51.8 62.5 51.75 40.49 51.84 18.47C51.86 14.69 49.45 12.65 46.3 12.96C46 12.99 45.7 12.96 45.28 12.96C45.28 11.57 45.28 10.31 45.28 8.98001C54.55 8.98001 63.77 8.98001 73.07 8.98001C73.07 11.61 73.07 14.23 73.07 16.97C72.72 16.99 72.37 17.02 72.02 17.02C70.08 17.03 68.13 17 66.19 17.03C63.43 17.07 61.45 19 61.46 21.58C61.47 24.15 63.47 26.04 66.24 26.07C68.15 26.09 70.06 26.07 71.97 26.07C72.33 26.07 72.69 26.07 73.15 26.07C73.15 27.22 73.15 28.26 73.15 29.29C73.15 32.17 73.14 35.05 73.15 37.93C73.15 39.33 73.63 39.81 75.01 39.82C76.68 39.83 78.35 39.82 80.09 39.82C80.09 42.18 80.09 44.47 80.09 46.7C79.08 47.06 78.05 47.3 77.16 47.78C73.74 49.62 71.94 52.53 71.92 56.41C71.88 65.56 71.91 74.71 71.91 83.86ZM81.68 49.65C85.42 49.71 88.55 52.78 88.35 56.28C83.85 56.28 79.34 56.28 74.76 56.28C74.71 52.62 77.88 49.6 81.68 49.65ZM88.36 85.63C83.84 85.63 79.37 85.63 74.81 85.63C74.81 76.85 74.81 68.07 74.81 59.19C79.34 59.19 83.82 59.19 88.36 59.19C88.36 68.01 88.36 76.79 88.36 85.63Z" fill="#3E3EF7"/>
<path d="M2.18001 89C1.96001 89 1.72001 88.99 1.48001 88.93C0.470009 88.67 -0.0699912 87.95 8.81916e-06 86.95C0.0700088 85.92 0.710009 85.29 1.74001 85.2C2.10001 85.17 2.47001 85.17 2.84001 85.18H3.19001H14.7V54.71H11.27C11.27 55 11.27 55.29 11.27 55.58C11.23 57.58 9.83001 59.05 7.87001 59.17C6.85001 59.23 5.82001 59.23 4.80001 59.17C2.80001 59.05 1.40001 57.58 1.40001 55.59C1.39001 45.84 1.38001 36.09 1.40001 26.33C1.40001 24.33 2.81001 22.86 4.82001 22.77C5.84001 22.72 6.87001 22.72 7.88001 22.78C9.84001 22.88 11.23 24.36 11.27 26.37C11.28 26.91 11.28 27.46 11.27 28.03V28.36H11.77C12.67 28.36 13.52 28.36 14.37 28.36C14.46 28.36 14.55 28.35 14.65 28.33V23.23C14.65 21.45 14.65 19.67 14.65 17.89C14.66 14.54 16.74 12.46 20.09 12.45H20.89C20.89 12.3 20.89 12.16 20.9 12.01C20.91 11.24 20.92 10.51 20.86 9.79996C20.81 9.72996 20.43 9.48996 20.3 9.40996C18.46 8.24996 17.46 6.14996 17.83 4.19996C18.23 2.05996 19.72 0.519963 21.83 0.089963C24.17 -0.390037 26.53 0.889963 27.44 3.11996C28.4 5.47996 27.5 8.15996 25.36 9.32996C24.79 9.63996 24.65 9.91996 24.7 10.58C24.74 11.1 24.73 11.61 24.72 12.16C24.72 12.23 24.72 12.3 24.72 12.37H41.94V11.43C41.94 10.31 41.94 9.20996 41.94 8.10996C41.95 6.23996 42.6 5.56996 44.45 5.56996C54.33 5.56996 64.22 5.55996 74.1 5.56996C75.77 5.56996 76.46 6.24996 76.46 7.92996C76.47 10.06 76.46 12.2 76.46 14.37V16.61C76.77 16.63 77.06 16.64 77.36 16.64C78.01 16.64 78.66 16.64 79.31 16.63C80.81 16.62 82.31 16.61 83.81 16.65C86.38 16.71 88.45 18.57 88.74 21.08C89.03 23.62 87.53 25.84 85.1 26.5C84.52 26.66 83.91 26.67 83.38 26.68C81.59 26.69 79.8 26.69 77.99 26.69H76.51V36.64H77.56C78.7 36.64 79.83 36.64 80.96 36.64C82.89 36.65 83.48 37.23 83.48 39.13V40.48C83.48 42.38 83.49 44.28 83.47 46.18C83.47 46.53 83.47 46.54 83.82 46.62C88.61 47.72 91.72 51.6 91.74 56.51C91.76 63.11 91.76 69.7 91.75 76.3V85.17H98.36C99.95 85.17 100.77 85.8 100.79 87.02C100.8 87.57 100.64 88.01 100.31 88.35C99.89 88.77 99.24 88.98 98.31 88.98H13.77L2.61001 89H2.40001C2.33001 89 2.26001 89 2.18001 89ZM2.47001 86.18C2.25001 86.18 2.04001 86.18 1.82001 86.2C1.29001 86.24 1.04001 86.49 1.00001 87.03C0.980009 87.37 1.04001 87.79 1.73001 87.97C1.92001 88.01 2.14001 88 2.38001 88H2.61001H37.69H98.3C98.93 88 99.37 87.89 99.58 87.67C99.71 87.54 99.77 87.34 99.77 87.06C99.76 86.69 99.75 86.19 98.34 86.19H90.73V76.32C90.73 69.72 90.74 63.13 90.72 56.53C90.71 52.11 87.9 48.61 83.58 47.61C82.77 47.42 82.45 47.01 82.46 46.18C82.48 44.29 82.48 42.39 82.47 40.5V39.15C82.47 37.79 82.34 37.66 80.94 37.66C79.81 37.66 78.69 37.66 77.55 37.66H75.5V25.72H77.98C79.79 25.72 81.58 25.72 83.36 25.71C83.83 25.71 84.36 25.69 84.82 25.57C86.77 25.04 87.96 23.26 87.73 21.23C87.5 19.19 85.87 17.73 83.77 17.69C82.28 17.65 80.79 17.66 79.3 17.67C78.55 17.67 77.8 17.68 77.05 17.68C76.8 17.68 76.56 17.66 76.29 17.65L75.44 17.6V14.41C75.44 12.24 75.44 10.1 75.44 7.96996C75.44 6.82996 75.21 6.59996 74.08 6.59996C64.19 6.59996 54.31 6.59996 44.43 6.59996C43.12 6.59996 42.92 6.79996 42.92 8.13996C42.92 9.23996 42.92 10.34 42.92 11.45V13.39H23.7V12.89C23.7 12.64 23.7 12.4 23.71 12.16C23.72 11.64 23.73 11.16 23.69 10.68C23.61 9.62996 23.96 8.96996 24.87 8.46996C26.57 7.53996 27.28 5.39996 26.51 3.50996C25.78 1.71996 23.9 0.689963 22.03 1.07996C20.31 1.42996 19.13 2.63996 18.81 4.38996C18.52 5.94996 19.33 7.62996 20.83 8.57996C21.34 8.89996 21.8 9.22996 21.85 9.71996C21.92 10.48 21.91 11.24 21.9 12.04C21.9 12.34 21.89 12.65 21.89 12.96V13.46H20.1C17.28 13.47 15.67 15.09 15.66 17.9C15.66 19.68 15.66 21.46 15.66 23.24V29.21L14.94 29.31C14.73 29.34 14.56 29.37 14.39 29.37C13.54 29.38 12.68 29.37 11.78 29.37H10.28V28.03C10.28 27.46 10.28 26.93 10.28 26.39C10.25 24.91 9.27001 23.86 7.84001 23.78C6.86001 23.73 5.86001 23.73 4.88001 23.77C3.41001 23.84 2.42001 24.87 2.41001 26.34C2.40001 36.09 2.40001 45.84 2.41001 55.59C2.41001 57.07 3.38001 58.08 4.87001 58.17C5.85001 58.22 6.84001 58.22 7.83001 58.17C9.27001 58.08 10.25 57.03 10.29 55.56C10.3 55.25 10.29 54.95 10.29 54.64V53.71H15.73V86.18H2.83001C2.71001 86.18 2.59001 86.18 2.47001 86.18ZM49.41 86.14H17.46V18.17C17.46 16 18.18 15.27 20.33 15.27C29.11 15.27 37.89 15.27 46.66 15.27C48.66 15.27 49.47 16.07 49.47 18.04V84.69C49.47 84.9 49.46 85.1 49.45 85.33L49.41 86.14ZM18.46 85.14H48.46C48.47 84.98 48.48 84.84 48.48 84.69V18.04C48.48 16.62 48.12 16.27 46.67 16.27C37.9 16.27 29.11 16.27 20.34 16.27C18.75 16.27 18.47 16.55 18.47 18.17L18.46 85.14ZM88.86 86.13H74.3V58.7H88.85V86.13H88.86ZM75.3 85.13H87.85V59.7H75.3V85.13ZM72.41 86.12H51.3L51.29 67.82C51.28 51.65 51.27 34.92 51.34 18.47C51.35 16.76 50.83 15.38 49.85 14.49C48.96 13.68 47.75 13.32 46.35 13.46C46.14 13.48 45.92 13.48 45.67 13.47H44.79V8.47996H73.58V17.45L72.78 17.49C72.29 17.52 71.8 17.52 71.3 17.52C70.83 17.52 70.36 17.52 69.89 17.52C68.66 17.51 67.43 17.51 66.2 17.53C63.73 17.57 61.95 19.27 61.96 21.58C61.97 23.87 63.77 25.55 66.25 25.57C67.56 25.58 68.86 25.58 70.17 25.57H73.65V31.73C73.65 33.8 73.65 35.87 73.65 37.93C73.65 39.05 73.91 39.31 75.02 39.32C76.18 39.33 77.35 39.33 78.54 39.32H80.61V47.05L80.28 47.17C79.95 47.29 79.63 47.39 79.3 47.5C78.62 47.71 77.99 47.92 77.42 48.22C74.13 49.99 72.46 52.74 72.44 56.41C72.39 62.95 72.4 69.47 72.4 76L72.41 86.12ZM52.3 85.12H71.41L71.4 76C71.39 69.47 71.39 62.94 71.42 56.42C71.44 52.41 73.34 49.28 76.92 47.35C77.57 47 78.29 46.77 78.98 46.55C79.18 46.49 79.39 46.42 79.59 46.35V40.33H78.53C77.34 40.33 76.17 40.33 75.01 40.33C73.34 40.32 72.66 39.63 72.65 37.94C72.64 35.87 72.65 33.8 72.65 31.73V26.57H70.17C68.86 26.57 67.55 26.58 66.24 26.57C63.2 26.54 60.98 24.44 60.96 21.58C60.95 18.7 63.14 16.58 66.18 16.53C67.42 16.51 68.65 16.51 69.89 16.52C70.6 16.52 71.31 16.52 72.02 16.52C72.21 16.52 72.39 16.51 72.57 16.5V9.47996H45.78V12.47C45.95 12.47 46.1 12.47 46.25 12.46C47.92 12.3 49.43 12.76 50.52 13.75C51.71 14.84 52.34 16.47 52.33 18.47C52.26 34.92 52.27 51.64 52.28 67.82L52.3 85.12ZM88.83 56.79H74.27L74.26 56.3C74.23 54.45 74.96 52.69 76.3 51.34C77.71 49.93 79.69 49.12 81.68 49.16C83.71 49.19 85.66 50.06 87.04 51.54C88.3 52.89 88.94 54.59 88.84 56.32L88.83 56.79ZM75.28 55.79H87.87C87.82 54.5 87.29 53.25 86.33 52.22C85.13 50.94 83.44 50.18 81.68 50.16C79.95 50.12 78.24 50.82 77.02 52.04C75.98 53.07 75.38 54.39 75.28 55.79ZM8.40001 56.32H4.28001V25.62H8.40001V56.32ZM5.28001 55.32H7.40001V26.62H5.28001V55.32ZM15.72 51.78H10.33V31.25H15.72V51.78ZM11.34 50.78H14.73V32.25H11.34V50.78ZM82.81 23.77C82.63 23.77 82.45 23.77 82.27 23.77H81.7H72.97C70.86 23.77 68.75 23.77 66.64 23.77C66.25 23.77 65.83 23.77 65.42 23.66C64.39 23.4 63.8 22.64 63.78 21.58C63.77 20.53 64.36 19.74 65.37 19.46C65.81 19.34 66.28 19.34 66.69 19.33C72.14 19.32 77.6 19.33 83.05 19.33H83.19C83.46 19.33 83.74 19.33 84.03 19.37C85.19 19.55 85.99 20.46 85.97 21.59C85.95 22.73 85.1 23.63 83.94 23.73C83.57 23.77 83.19 23.77 82.81 23.77ZM81.7 22.77H82.28C82.83 22.78 83.35 22.78 83.87 22.74C84.51 22.69 84.97 22.21 84.98 21.58C84.99 20.96 84.55 20.47 83.89 20.37C83.67 20.33 83.44 20.34 83.21 20.34H83.06C77.61 20.34 72.15 20.34 66.7 20.34C66.33 20.34 65.95 20.34 65.64 20.43C65.06 20.59 64.78 20.98 64.79 21.58C64.8 22.18 65.1 22.55 65.68 22.7C65.96 22.77 66.29 22.77 66.63 22.77C68.76 22.77 70.87 22.77 72.98 22.77H81.7ZM22.78 7.20996C21.5 7.20996 20.57 6.30996 20.55 5.06996C20.54 3.85996 21.54 2.81996 22.73 2.79996C23.3 2.79996 23.85 2.99996 24.27 3.40996C24.7 3.82996 24.96 4.40996 24.97 4.99996C24.98 5.62996 24.78 6.17996 24.39 6.57996C24 6.98996 23.45 7.19996 22.81 7.20996C22.8 7.20996 22.79 7.20996 22.78 7.20996ZM21.56 5.05996C21.57 5.75996 22.06 6.21996 22.8 6.21996C23.17 6.21996 23.47 6.09996 23.67 5.88996C23.87 5.67996 23.98 5.37996 23.97 5.01996C23.96 4.68996 23.82 4.36996 23.58 4.13996C23.35 3.91996 23.06 3.79996 22.76 3.79996C22.12 3.80996 21.55 4.40996 21.56 5.05996Z" fill="#3E3EF7"/>
<path d="M34.74 24.04C34.14 23.04 32.79 23.09 32.28 24.12C30.78 27.17 29.15 30.19 27.97 33.37C26.59 37.07 29.54 40.88 33.5 40.89C37.3 40.91 40.21 37.43 39.29 33.82C38.4 30.28 36.6 27.13 34.74 24.04ZM35.31 37.53C34.24 38.27 32.8 38.26 31.73 37.51C30.61 36.71 30.11 35.38 30.63 34.05C31.47 31.92 32.43 29.85 33.34 27.75C33.47 27.76 33.61 27.77 33.74 27.78C34.65 29.88 35.63 31.96 36.46 34.1C36.98 35.4 36.43 36.75 35.31 37.53Z" fill="#3E3EF7"/>
<path d="M33.53 41.38C33.52 41.38 33.51 41.38 33.5 41.38C31.37 41.37 29.39 40.34 28.2 38.61C27.08 36.99 26.82 35.01 27.5 33.18C28.44 30.65 29.67 28.2 30.87 25.82C31.19 25.18 31.52 24.53 31.83 23.89C32.15 23.24 32.75 22.84 33.44 22.81C34.13 22.79 34.78 23.14 35.17 23.77C37.08 26.94 38.87 30.07 39.78 33.68C40.24 35.49 39.83 37.39 38.66 38.89C37.42 40.48 35.55 41.38 33.53 41.38ZM33.52 23.81C33.51 23.81 33.5 23.81 33.48 23.81C33.16 23.82 32.88 24.01 32.73 24.33C32.41 24.98 32.09 25.62 31.76 26.27C30.58 28.62 29.36 31.05 28.44 33.53C27.88 35.05 28.09 36.69 29.02 38.04C30.03 39.5 31.7 40.37 33.5 40.38C33.51 40.38 33.52 40.38 33.53 40.38C35.24 40.38 36.82 39.61 37.87 38.28C38.85 37.03 39.19 35.44 38.81 33.94C37.93 30.46 36.18 27.4 34.31 24.3C34.13 23.99 33.83 23.81 33.52 23.81ZM33.54 38.58C32.8 38.58 32.07 38.36 31.44 37.91C30.08 36.94 29.58 35.35 30.16 33.86C30.76 32.35 31.42 30.84 32.07 29.38C32.34 28.77 32.61 28.15 32.88 27.54L33.02 27.22L34.08 27.29L34.2 27.57C34.47 28.19 34.75 28.81 35.02 29.43C35.67 30.89 36.34 32.39 36.93 33.91C37.49 35.37 36.95 36.99 35.59 37.94C34.98 38.37 34.26 38.58 33.54 38.58ZM33.54 28.54C33.36 28.96 33.17 29.37 32.99 29.79C32.35 31.24 31.68 32.74 31.1 34.23C30.68 35.29 31.04 36.39 32.03 37.1C32.93 37.74 34.13 37.75 35.03 37.12C36.03 36.42 36.41 35.31 36.01 34.27C35.43 32.78 34.77 31.28 34.12 29.84C33.93 29.41 33.73 28.98 33.54 28.54Z" fill="#3E3EF7"/>
</g>
<defs>
<clipPath id="clip0">
<rect width="100.78" height="89" fill="white"/>
</clipPath>
</defs>
</svg>
