<svg width="84" height="81" viewBox="0 0 84 81" fill="none" xmlns="http://www.w3.org/2000/svg">
<g clip-path="url(#clip0)">
<path d="M0 23.9399C5.25 23.9399 5.25 28.0999 10.5 28.0999C15.75 28.0999 15.75 23.9399 21 23.9399C26.25 23.9399 26.25 28.0999 31.5 28.0999C36.75 28.0999 36.75 23.9399 42 23.9399C47.25 23.9399 47.25 28.0999 52.5 28.0999C57.75 28.0999 57.75 23.9399 63 23.9399C68.25 23.9399 68.25 28.0999 73.51 28.0999C78.76 28.0999 78.76 23.9399 84.02 23.9399" stroke="#3E3EF7" stroke-width="4" stroke-miterlimit="10"/>
<path d="M31.49 51.06C36.74 51.06 36.74 46.9 41.99 46.9C47.24 46.9 47.24 51.06 52.49 51.06C57.74 51.06 57.74 46.9 62.99 46.9C68.24 46.9 68.24 51.06 73.5 51.06C78.75 51.06 78.75 46.9 84.01 46.9" stroke="#3E3EF7" stroke-width="4" stroke-miterlimit="10"/>
<path d="M0.48999 77.06C5.73999 77.06 5.73999 72.9 10.99 72.9C16.24 72.9 16.24 77.06 21.49 77.06C26.74 77.06 26.74 72.9 31.99 72.9C37.24 72.9 37.24 77.06 42.5 77.06C47.76 77.06 47.75 72.9 53 72.9" stroke="#3E3EF7" stroke-width="4" stroke-miterlimit="10"/>
<path d="M48.11 6.47C48.11 6.51 48.1 6.55 48.08 6.58L48.07 6.59C48.05 6.61 48.03 6.63 48.01 6.64L47.72 6.77C46.72 7.23 45.84 7.92 45.11 8.78C44.4 9.61 43.85 10.6 43.48 11.7C43.44 11.81 43.36 11.9 43.26 11.93H43.25C43.15 11.9 43.07 11.81 43.03 11.7C42.66 10.6 42.11 9.61 41.4 8.78C40.67 7.92 39.79 7.23 38.79 6.77L38.5 6.64C38.48 6.63 38.45 6.61 38.44 6.59C38.44 6.59 38.44 6.58 38.43 6.58C38.41 6.55 38.4 6.5 38.4 6.47C38.4 6.43 38.41 6.39 38.43 6.35L38.44 6.34C38.46 6.32 38.48 6.3 38.5 6.29L38.79 6.16C39.79 5.7 40.67 5.01 41.4 4.15C42.11 3.32 42.66 2.33 43.03 1.23C43.07 1.12 43.15 1.03 43.25 1H43.26C43.36 1.03 43.44 1.12 43.48 1.23C43.85 2.33 44.4 3.32 45.11 4.15C45.84 5.01 46.72 5.7 47.72 6.16L48.01 6.29C48.03 6.3 48.06 6.32 48.07 6.34C48.07 6.34 48.07 6.35 48.08 6.35C48.1 6.39 48.11 6.43 48.11 6.47Z" stroke="#3E3EF7" stroke-width="2" stroke-miterlimit="10"/>
<path d="M23.68 50.61C23.69 50.68 23.67 50.75 23.62 50.81C23.61 50.82 23.61 50.82 23.61 50.83C23.58 50.87 23.53 50.9 23.48 50.92L22.92 51.16C20.97 51.97 19.24 53.18 17.81 54.69C16.43 56.15 15.34 57.89 14.63 59.82C14.56 60.02 14.4 60.18 14.2 60.22C14.2 60.22 14.2 60.22 14.19 60.22H14.17H14.16C13.96 60.18 13.8 60.01 13.73 59.82C13.02 57.89 11.93 56.15 10.55 54.69C9.11999 53.18 7.38999 51.97 5.43999 51.16L4.87999 50.92C4.82999 50.9 4.78999 50.87 4.74999 50.83C4.74999 50.82 4.73999 50.82 4.73999 50.81C4.68999 50.75 4.66999 50.68 4.67999 50.61C4.66999 50.54 4.68999 50.47 4.73999 50.41C4.74999 50.4 4.74999 50.4 4.74999 50.39C4.77999 50.35 4.82999 50.32 4.87999 50.3L5.43999 50.07C7.38999 49.26 9.11999 48.05 10.55 46.54C11.93 45.08 13.02 43.34 13.73 41.41C13.8 41.21 13.96 41.05 14.16 41.01C14.16 41.01 14.16 41.01 14.17 41.01H14.19H14.2C14.4 41.05 14.56 41.22 14.63 41.41C15.34 43.34 16.43 45.08 17.81 46.54C19.24 48.05 20.97 49.26 22.92 50.07L23.48 50.3C23.53 50.32 23.57 50.35 23.61 50.39C23.61 50.4 23.62 50.4 23.62 50.41C23.67 50.47 23.69 50.54 23.68 50.61Z" stroke="#3E3EF7" stroke-width="3" stroke-miterlimit="10"/>
<path d="M79.68 69.61C79.69 69.68 79.67 69.75 79.62 69.81C79.61 69.82 79.61 69.82 79.61 69.83C79.58 69.87 79.53 69.9 79.48 69.92L78.92 70.16C76.97 70.97 75.24 72.18 73.81 73.69C72.43 75.15 71.34 76.89 70.63 78.82C70.56 79.02 70.4 79.18 70.2 79.22C70.2 79.22 70.2 79.22 70.19 79.22H70.17H70.16C69.96 79.18 69.8 79.01 69.73 78.82C69.02 76.89 67.93 75.15 66.55 73.69C65.12 72.18 63.39 70.97 61.44 70.16L60.88 69.92C60.83 69.9 60.79 69.87 60.75 69.83C60.75 69.82 60.74 69.82 60.74 69.81C60.69 69.75 60.67 69.68 60.68 69.61C60.67 69.54 60.69 69.47 60.74 69.41C60.75 69.4 60.75 69.4 60.75 69.39C60.78 69.35 60.83 69.32 60.88 69.3L61.44 69.07C63.39 68.26 65.12 67.05 66.55 65.54C67.93 64.08 69.02 62.34 69.73 60.41C69.8 60.21 69.96 60.05 70.16 60.01C70.16 60.01 70.16 60.01 70.17 60.01H70.19H70.2C70.4 60.05 70.56 60.22 70.63 60.41C71.34 62.34 72.43 64.08 73.81 65.54C75.24 67.05 76.97 68.26 78.92 69.07L79.48 69.3C79.53 69.32 79.57 69.35 79.61 69.39C79.61 69.4 79.62 69.4 79.62 69.41C79.67 69.47 79.69 69.54 79.68 69.61Z" stroke="#3E3EF7" stroke-width="3" stroke-miterlimit="10"/>
</g>
<defs>
<clipPath id="clip0">
<rect width="84" height="80.72" fill="white"/>
</clipPath>
</defs>
</svg>
